solid ascii
  facet normal -0.000000e+000 -1.000000e+000 0.000000e+000
    outer loop
      vertex   1.250000e+001 -8.625000e+000 -1.487500e+001
      vertex   1.250000e+001 -8.625000e+000 2.512500e+001
      vertex   1.000000e+001 -8.625000e+000 -1.487500e+001
    endloop
  endfacet
  facet normal 0.000000e+000 -1.000000e+000 0.000000e+000
    outer loop
      vertex   1.000000e+001 -8.625000e+000 -1.487500e+001
      vertex   1.250000e+001 -8.625000e+000 2.512500e+001
      vertex   1.000000e+001 -8.625000e+000 2.512500e+001
    endloop
  endfacet
  facet normal -1.000000e+000 0.000000e+000 2.220446e-016
    outer loop
      vertex   1.000000e+001 -6.125000e+000 2.512500e+001
      vertex   1.000000e+001 -6.125000e+000 -1.487500e+001
      vertex   1.000000e+001 -8.625000e+000 2.512500e+001
    endloop
  endfacet
  facet normal -1.000000e+000 0.000000e+000 2.220446e-016
    outer loop
      vertex   1.000000e+001 -8.625000e+000 2.512500e+001
      vertex   1.000000e+001 -6.125000e+000 -1.487500e+001
      vertex   1.000000e+001 -8.625000e+000 -1.487500e+001
    endloop
  endfacet
  facet normal 0.000000e+000 -0.000000e+000 1.000000e+000
    outer loop
      vertex   1.000000e+001 -8.625000e+000 2.512500e+001
      vertex   1.250000e+001 -8.625000e+000 2.512500e+001
      vertex   1.000000e+001 -6.125000e+000 2.512500e+001
    endloop
  endfacet
  facet normal -0.000000e+000 0.000000e+000 1.000000e+000
    outer loop
      vertex   1.000000e+001 -6.125000e+000 2.512500e+001
      vertex   1.250000e+001 -8.625000e+000 2.512500e+001
      vertex   1.250000e+001 -6.125000e+000 2.512500e+001
    endloop
  endfacet
  facet normal 0.000000e+000 0.000000e+000 -1.000000e+000
    outer loop
      vertex   1.250000e+001 -8.625000e+000 -1.487500e+001
      vertex   1.000000e+001 -8.625000e+000 -1.487500e+001
      vertex   1.250000e+001 -6.125000e+000 -1.487500e+001
    endloop
  endfacet
  facet normal -0.000000e+000 0.000000e+000 -1.000000e+000
    outer loop
      vertex   1.250000e+001 -6.125000e+000 -1.487500e+001
      vertex   1.000000e+001 -8.625000e+000 -1.487500e+001
      vertex   1.000000e+001 -6.125000e+000 -1.487500e+001
    endloop
  endfacet
  facet normal 1.000000e+000 0.000000e+000 -2.220446e-016
    outer loop
      vertex   1.250000e+001 -8.625000e+000 2.512500e+001
      vertex   1.250000e+001 -8.625000e+000 -1.487500e+001
      vertex   1.250000e+001 -6.125000e+000 2.512500e+001
    endloop
  endfacet
  facet normal 1.000000e+000 0.000000e+000 -2.220446e-016
    outer loop
      vertex   1.250000e+001 -6.125000e+000 2.512500e+001
      vertex   1.250000e+001 -8.625000e+000 -1.487500e+001
      vertex   1.250000e+001 -6.125000e+000 -1.487500e+001
    endloop
  endfacet
  facet normal 0.000000e+000 1.000000e+000 0.000000e+000
    outer loop
      vertex   1.250000e+001 -6.125000e+000 2.512500e+001
      vertex   1.250000e+001 -6.125000e+000 -1.487500e+001
      vertex   1.000000e+001 -6.125000e+000 2.512500e+001
    endloop
  endfacet
  facet normal 0.000000e+000 1.000000e+000 0.000000e+000
    outer loop
      vertex   1.000000e+001 -6.125000e+000 2.512500e+001
      vertex   1.250000e+001 -6.125000e+000 -1.487500e+001
      vertex   1.000000e+001 -6.125000e+000 -1.487500e+001
    endloop
  endfacet
endsolid
solid ascii
  facet normal 0.000000e+000 -0.000000e+000 1.000000e+000
    outer loop
      vertex   -1.250000e+001 -8.625000e+000 2.512500e+001
      vertex   -1.000000e+001 -8.625000e+000 2.512500e+001
      vertex   -1.250000e+001 -6.125000e+000 2.512500e+001
    endloop
  endfacet
  facet normal -0.000000e+000 0.000000e+000 1.000000e+000
    outer loop
      vertex   -1.250000e+001 -6.125000e+000 2.512500e+001
      vertex   -1.000000e+001 -8.625000e+000 2.512500e+001
      vertex   -1.000000e+001 -6.125000e+000 2.512500e+001
    endloop
  endfacet
  facet normal -1.000000e+000 0.000000e+000 2.220446e-016
    outer loop
      vertex   -1.250000e+001 -8.625000e+000 -1.487500e+001
      vertex   -1.250000e+001 -8.625000e+000 2.512500e+001
      vertex   -1.250000e+001 -6.125000e+000 -1.487500e+001
    endloop
  endfacet
  facet normal -1.000000e+000 0.000000e+000 2.220446e-016
    outer loop
      vertex   -1.250000e+001 -6.125000e+000 -1.487500e+001
      vertex   -1.250000e+001 -8.625000e+000 2.512500e+001
      vertex   -1.250000e+001 -6.125000e+000 2.512500e+001
    endloop
  endfacet
  facet normal -3.552714e-015 0.000000e+000 -1.000000e+000
    outer loop
      vertex   -1.000000e+001 -8.625000e+000 -1.487500e+001
      vertex   -1.250000e+001 -8.625000e+000 -1.487500e+001
      vertex   -1.000000e+001 -6.125000e+000 -1.487500e+001
    endloop
  endfacet
  facet normal -3.552714e-015 0.000000e+000 -1.000000e+000
    outer loop
      vertex   -1.000000e+001 -6.125000e+000 -1.487500e+001
      vertex   -1.250000e+001 -8.625000e+000 -1.487500e+001
      vertex   -1.250000e+001 -6.125000e+000 -1.487500e+001
    endloop
  endfacet
  facet normal 1.000000e+000 0.000000e+000 -1.776357e-016
    outer loop
      vertex   -1.000000e+001 -8.625000e+000 2.512500e+001
      vertex   -1.000000e+001 -8.625000e+000 -1.487500e+001
      vertex   -1.000000e+001 -6.125000e+000 2.512500e+001
    endloop
  endfacet
  facet normal 1.000000e+000 0.000000e+000 -1.776357e-016
    outer loop
      vertex   -1.000000e+001 -6.125000e+000 2.512500e+001
      vertex   -1.000000e+001 -8.625000e+000 -1.487500e+001
      vertex   -1.000000e+001 -6.125000e+000 -1.487500e+001
    endloop
  endfacet
  facet normal 0.000000e+000 1.000000e+000 0.000000e+000
    outer loop
      vertex   -1.000000e+001 -6.125000e+000 2.512500e+001
      vertex   -1.000000e+001 -6.125000e+000 -1.487500e+001
      vertex   -1.250000e+001 -6.125000e+000 2.512500e+001
    endloop
  endfacet
  facet normal 0.000000e+000 1.000000e+000 0.000000e+000
    outer loop
      vertex   -1.250000e+001 -6.125000e+000 2.512500e+001
      vertex   -1.000000e+001 -6.125000e+000 -1.487500e+001
      vertex   -1.250000e+001 -6.125000e+000 -1.487500e+001
    endloop
  endfacet
  facet normal -0.000000e+000 -1.000000e+000 0.000000e+000
    outer loop
      vertex   -1.000000e+001 -8.625000e+000 -1.487500e+001
      vertex   -1.000000e+001 -8.625000e+000 2.512500e+001
      vertex   -1.250000e+001 -8.625000e+000 -1.487500e+001
    endloop
  endfacet
  facet normal 0.000000e+000 -1.000000e+000 0.000000e+000
    outer loop
      vertex   -1.250000e+001 -8.625000e+000 -1.487500e+001
      vertex   -1.000000e+001 -8.625000e+000 2.512500e+001
      vertex   -1.250000e+001 -8.625000e+000 2.512500e+001
    endloop
  endfacet
endsolid
solid ascii
  facet normal 0.000000e+000 -0.000000e+000 1.000000e+000
    outer loop
      vertex   -1.250000e+001 3.875000e+000 2.512500e+001
      vertex   -1.000000e+001 3.875000e+000 2.512500e+001
      vertex   -1.250000e+001 6.375000e+000 2.512500e+001
    endloop
  endfacet
  facet normal -0.000000e+000 -0.000000e+000 1.000000e+000
    outer loop
      vertex   -1.250000e+001 6.375000e+000 2.512500e+001
      vertex   -1.000000e+001 3.875000e+000 2.512500e+001
      vertex   -1.000000e+001 6.375000e+000 2.512500e+001
    endloop
  endfacet
  facet normal -1.000000e+000 -1.421085e-015 2.220446e-016
    outer loop
      vertex   -1.250000e+001 3.875000e+000 -1.487500e+001
      vertex   -1.250000e+001 3.875000e+000 2.512500e+001
      vertex   -1.250000e+001 6.375000e+000 -1.487500e+001
    endloop
  endfacet
  facet normal -1.000000e+000 -1.421085e-015 2.220446e-016
    outer loop
      vertex   -1.250000e+001 6.375000e+000 -1.487500e+001
      vertex   -1.250000e+001 3.875000e+000 2.512500e+001
      vertex   -1.250000e+001 6.375000e+000 2.512500e+001
    endloop
  endfacet
  facet normal -3.552714e-015 -7.573065e-030 -1.000000e+000
    outer loop
      vertex   -1.000000e+001 3.875000e+000 -1.487500e+001
      vertex   -1.250000e+001 3.875000e+000 -1.487500e+001
      vertex   -1.000000e+001 6.375000e+000 -1.487500e+001
    endloop
  endfacet
  facet normal -3.552714e-015 -5.048710e-030 -1.000000e+000
    outer loop
      vertex   -1.000000e+001 6.375000e+000 -1.487500e+001
      vertex   -1.250000e+001 3.875000e+000 -1.487500e+001
      vertex   -1.250000e+001 6.375000e+000 -1.487500e+001
    endloop
  endfacet
  facet normal 1.000000e+000 1.421085e-015 -2.220446e-016
    outer loop
      vertex   -1.000000e+001 3.875000e+000 2.512500e+001
      vertex   -1.000000e+001 3.875000e+000 -1.487500e+001
      vertex   -1.000000e+001 6.375000e+000 2.512500e+001
    endloop
  endfacet
  facet normal 1.000000e+000 2.131628e-015 -2.664535e-016
    outer loop
      vertex   -1.000000e+001 6.375000e+000 2.512500e+001
      vertex   -1.000000e+001 3.875000e+000 -1.487500e+001
      vertex   -1.000000e+001 6.375000e+000 -1.487500e+001
    endloop
  endfacet
  facet normal 0.000000e+000 1.000000e+000 0.000000e+000
    outer loop
      vertex   -1.000000e+001 6.375000e+000 2.512500e+001
      vertex   -1.000000e+001 6.375000e+000 -1.487500e+001
      vertex   -1.250000e+001 6.375000e+000 2.512500e+001
    endloop
  endfacet
  facet normal 0.000000e+000 1.000000e+000 0.000000e+000
    outer loop
      vertex   -1.250000e+001 6.375000e+000 2.512500e+001
      vertex   -1.000000e+001 6.375000e+000 -1.487500e+001
      vertex   -1.250000e+001 6.375000e+000 -1.487500e+001
    endloop
  endfacet
  facet normal -0.000000e+000 -1.000000e+000 0.000000e+000
    outer loop
      vertex   -1.000000e+001 3.875000e+000 -1.487500e+001
      vertex   -1.000000e+001 3.875000e+000 2.512500e+001
      vertex   -1.250000e+001 3.875000e+000 -1.487500e+001
    endloop
  endfacet
  facet normal 0.000000e+000 -1.000000e+000 0.000000e+000
    outer loop
      vertex   -1.250000e+001 3.875000e+000 -1.487500e+001
      vertex   -1.000000e+001 3.875000e+000 2.512500e+001
      vertex   -1.250000e+001 3.875000e+000 2.512500e+001
    endloop
  endfacet
endsolid
solid ascii
  facet normal 0.000000e+000 -0.000000e+000 1.000000e+000
    outer loop
      vertex   1.000000e+001 3.875000e+000 2.512500e+001
      vertex   1.250000e+001 3.875000e+000 2.512500e+001
      vertex   1.000000e+001 6.375000e+000 2.512500e+001
    endloop
  endfacet
  facet normal -0.000000e+000 0.000000e+000 1.000000e+000
    outer loop
      vertex   1.000000e+001 6.375000e+000 2.512500e+001
      vertex   1.250000e+001 3.875000e+000 2.512500e+001
      vertex   1.250000e+001 6.375000e+000 2.512500e+001
    endloop
  endfacet
  facet normal -1.000000e+000 0.000000e+000 2.220446e-016
    outer loop
      vertex   1.000000e+001 3.875000e+000 -1.487500e+001
      vertex   1.000000e+001 3.875000e+000 2.512500e+001
      vertex   1.000000e+001 6.375000e+000 -1.487500e+001
    endloop
  endfacet
  facet normal -1.000000e+000 0.000000e+000 2.220446e-016
    outer loop
      vertex   1.000000e+001 6.375000e+000 -1.487500e+001
      vertex   1.000000e+001 3.875000e+000 2.512500e+001
      vertex   1.000000e+001 6.375000e+000 2.512500e+001
    endloop
  endfacet
  facet normal 0.000000e+000 0.000000e+000 -1.000000e+000
    outer loop
      vertex   1.250000e+001 3.875000e+000 -1.487500e+001
      vertex   1.000000e+001 3.875000e+000 -1.487500e+001
      vertex   1.250000e+001 6.375000e+000 -1.487500e+001
    endloop
  endfacet
  facet normal -0.000000e+000 0.000000e+000 -1.000000e+000
    outer loop
      vertex   1.250000e+001 6.375000e+000 -1.487500e+001
      vertex   1.000000e+001 3.875000e+000 -1.487500e+001
      vertex   1.000000e+001 6.375000e+000 -1.487500e+001
    endloop
  endfacet
  facet normal 1.000000e+000 0.000000e+000 -2.220446e-016
    outer loop
      vertex   1.250000e+001 3.875000e+000 2.512500e+001
      vertex   1.250000e+001 3.875000e+000 -1.487500e+001
      vertex   1.250000e+001 6.375000e+000 2.512500e+001
    endloop
  endfacet
  facet normal 1.000000e+000 0.000000e+000 -2.220446e-016
    outer loop
      vertex   1.250000e+001 6.375000e+000 2.512500e+001
      vertex   1.250000e+001 3.875000e+000 -1.487500e+001
      vertex   1.250000e+001 6.375000e+000 -1.487500e+001
    endloop
  endfacet
  facet normal 0.000000e+000 1.000000e+000 0.000000e+000
    outer loop
      vertex   1.250000e+001 6.375000e+000 2.512500e+001
      vertex   1.250000e+001 6.375000e+000 -1.487500e+001
      vertex   1.000000e+001 6.375000e+000 2.512500e+001
    endloop
  endfacet
  facet normal 0.000000e+000 1.000000e+000 0.000000e+000
    outer loop
      vertex   1.000000e+001 6.375000e+000 2.512500e+001
      vertex   1.250000e+001 6.375000e+000 -1.487500e+001
      vertex   1.000000e+001 6.375000e+000 -1.487500e+001
    endloop
  endfacet
  facet normal -0.000000e+000 -1.000000e+000 0.000000e+000
    outer loop
      vertex   1.250000e+001 3.875000e+000 -1.487500e+001
      vertex   1.250000e+001 3.875000e+000 2.512500e+001
      vertex   1.000000e+001 3.875000e+000 -1.487500e+001
    endloop
  endfacet
  facet normal 0.000000e+000 -1.000000e+000 0.000000e+000
    outer loop
      vertex   1.000000e+001 3.875000e+000 -1.487500e+001
      vertex   1.250000e+001 3.875000e+000 2.512500e+001
      vertex   1.000000e+001 3.875000e+000 2.512500e+001
    endloop
  endfacet
endsolid
solid ascii
  facet normal 0.000000e+000 -7.071068e-001 7.071068e-001
    outer loop
      vertex   -1.250000e+001 -8.544417e+000 2.492335e+001
      vertex   -1.000000e+001 -8.544417e+000 2.492335e+001
      vertex   -1.250000e+001 -1.473350e+000 3.199442e+001
    endloop
  endfacet
  facet normal 0.000000e+000 -7.071068e-001 7.071068e-001
    outer loop
      vertex   -1.250000e+001 -1.473350e+000 3.199442e+001
      vertex   -1.000000e+001 -8.544417e+000 2.492335e+001
      vertex   -1.000000e+001 -1.473350e+000 3.199442e+001
    endloop
  endfacet
  facet normal -1.000000e+000 0.000000e+000 0.000000e+000
    outer loop
      vertex   -1.250000e+001 -6.776650e+000 2.315558e+001
      vertex   -1.250000e+001 -8.544417e+000 2.492335e+001
      vertex   -1.250000e+001 2.944174e-001 3.022665e+001
    endloop
  endfacet
  facet normal -1.000000e+000 -0.000000e+000 0.000000e+000
    outer loop
      vertex   -1.250000e+001 2.944174e-001 3.022665e+001
      vertex   -1.250000e+001 -8.544417e+000 2.492335e+001
      vertex   -1.250000e+001 -1.473350e+000 3.199442e+001
    endloop
  endfacet
  facet normal 0.000000e+000 7.071068e-001 -7.071068e-001
    outer loop
      vertex   -1.000000e+001 -6.776650e+000 2.315558e+001
      vertex   -1.250000e+001 -6.776650e+000 2.315558e+001
      vertex   -1.000000e+001 2.944174e-001 3.022665e+001
    endloop
  endfacet
  facet normal 0.000000e+000 7.071068e-001 -7.071068e-001
    outer loop
      vertex   -1.000000e+001 2.944174e-001 3.022665e+001
      vertex   -1.250000e+001 -6.776650e+000 2.315558e+001
      vertex   -1.250000e+001 2.944174e-001 3.022665e+001
    endloop
  endfacet
  facet normal 1.000000e+000 -0.000000e+000 0.000000e+000
    outer loop
      vertex   -1.000000e+001 -8.544417e+000 2.492335e+001
      vertex   -1.000000e+001 -6.776650e+000 2.315558e+001
      vertex   -1.000000e+001 -1.473350e+000 3.199442e+001
    endloop
  endfacet
  facet normal 1.000000e+000 -0.000000e+000 0.000000e+000
    outer loop
      vertex   -1.000000e+001 -1.473350e+000 3.199442e+001
      vertex   -1.000000e+001 -6.776650e+000 2.315558e+001
      vertex   -1.000000e+001 2.944174e-001 3.022665e+001
    endloop
  endfacet
  facet normal 0.000000e+000 7.071068e-001 7.071068e-001
    outer loop
      vertex   -1.000000e+001 -1.473350e+000 3.199442e+001
      vertex   -1.000000e+001 2.944174e-001 3.022665e+001
      vertex   -1.250000e+001 -1.473350e+000 3.199442e+001
    endloop
  endfacet
  facet normal 0.000000e+000 7.071068e-001 7.071068e-001
    outer loop
      vertex   -1.250000e+001 -1.473350e+000 3.199442e+001
      vertex   -1.000000e+001 2.944174e-001 3.022665e+001
      vertex   -1.250000e+001 2.944174e-001 3.022665e+001
    endloop
  endfacet
  facet normal 0.000000e+000 -7.071068e-001 -7.071068e-001
    outer loop
      vertex   -1.000000e+001 -6.776650e+000 2.315558e+001
      vertex   -1.000000e+001 -8.544417e+000 2.492335e+001
      vertex   -1.250000e+001 -6.776650e+000 2.315558e+001
    endloop
  endfacet
  facet normal -0.000000e+000 -7.071068e-001 -7.071068e-001
    outer loop
      vertex   -1.250000e+001 -6.776650e+000 2.315558e+001
      vertex   -1.000000e+001 -8.544417e+000 2.492335e+001
      vertex   -1.250000e+001 -8.544417e+000 2.492335e+001
    endloop
  endfacet
endsolid
solid ascii
  facet normal 0.000000e+000 -7.071068e-001 7.071068e-001
    outer loop
      vertex   1.000000e+001 -8.544417e+000 2.492335e+001
      vertex   1.250000e+001 -8.544417e+000 2.492335e+001
      vertex   1.000000e+001 -1.473350e+000 3.199442e+001
    endloop
  endfacet
  facet normal 0.000000e+000 -7.071068e-001 7.071068e-001
    outer loop
      vertex   1.000000e+001 -1.473350e+000 3.199442e+001
      vertex   1.250000e+001 -8.544417e+000 2.492335e+001
      vertex   1.250000e+001 -1.473350e+000 3.199442e+001
    endloop
  endfacet
  facet normal -1.000000e+000 0.000000e+000 0.000000e+000
    outer loop
      vertex   1.000000e+001 -6.776650e+000 2.315558e+001
      vertex   1.000000e+001 -8.544417e+000 2.492335e+001
      vertex   1.000000e+001 2.944174e-001 3.022665e+001
    endloop
  endfacet
  facet normal -1.000000e+000 -0.000000e+000 0.000000e+000
    outer loop
      vertex   1.000000e+001 2.944174e-001 3.022665e+001
      vertex   1.000000e+001 -8.544417e+000 2.492335e+001
      vertex   1.000000e+001 -1.473350e+000 3.199442e+001
    endloop
  endfacet
  facet normal -1.256074e-015 7.071068e-001 -7.071068e-001
    outer loop
      vertex   1.250000e+001 -6.776650e+000 2.315558e+001
      vertex   1.000000e+001 -6.776650e+000 2.315558e+001
      vertex   1.250000e+001 2.944174e-001 3.022665e+001
    endloop
  endfacet
  facet normal 0.000000e+000 7.071068e-001 -7.071068e-001
    outer loop
      vertex   1.250000e+001 2.944174e-001 3.022665e+001
      vertex   1.000000e+001 -6.776650e+000 2.315558e+001
      vertex   1.000000e+001 2.944174e-001 3.022665e+001
    endloop
  endfacet
  facet normal 1.000000e+000 -0.000000e+000 0.000000e+000
    outer loop
      vertex   1.250000e+001 -8.544417e+000 2.492335e+001
      vertex   1.250000e+001 -6.776650e+000 2.315558e+001
      vertex   1.250000e+001 -1.473350e+000 3.199442e+001
    endloop
  endfacet
  facet normal 1.000000e+000 -0.000000e+000 0.000000e+000
    outer loop
      vertex   1.250000e+001 -1.473350e+000 3.199442e+001
      vertex   1.250000e+001 -6.776650e+000 2.315558e+001
      vertex   1.250000e+001 2.944174e-001 3.022665e+001
    endloop
  endfacet
  facet normal 0.000000e+000 7.071068e-001 7.071068e-001
    outer loop
      vertex   1.250000e+001 -1.473350e+000 3.199442e+001
      vertex   1.250000e+001 2.944174e-001 3.022665e+001
      vertex   1.000000e+001 -1.473350e+000 3.199442e+001
    endloop
  endfacet
  facet normal 0.000000e+000 7.071068e-001 7.071068e-001
    outer loop
      vertex   1.000000e+001 -1.473350e+000 3.199442e+001
      vertex   1.250000e+001 2.944174e-001 3.022665e+001
      vertex   1.000000e+001 2.944174e-001 3.022665e+001
    endloop
  endfacet
  facet normal -7.105427e-016 -7.071068e-001 -7.071068e-001
    outer loop
      vertex   1.250000e+001 -6.776650e+000 2.315558e+001
      vertex   1.250000e+001 -8.544417e+000 2.492335e+001
      vertex   1.000000e+001 -6.776650e+000 2.315558e+001
    endloop
  endfacet
  facet normal -0.000000e+000 -7.071068e-001 -7.071068e-001
    outer loop
      vertex   1.000000e+001 -6.776650e+000 2.315558e+001
      vertex   1.250000e+001 -8.544417e+000 2.492335e+001
      vertex   1.000000e+001 -8.544417e+000 2.492335e+001
    endloop
  endfacet
endsolid
solid ascii
  facet normal 0.000000e+000 -0.000000e+000 1.000000e+000
    outer loop
      vertex   -1.250000e+001 -1.375000e+000 3.212500e+001
      vertex   -1.000000e+001 -1.375000e+000 3.212500e+001
      vertex   -1.250000e+001 8.625000e+000 3.212500e+001
    endloop
  endfacet
  facet normal -0.000000e+000 -0.000000e+000 1.000000e+000
    outer loop
      vertex   -1.250000e+001 8.625000e+000 3.212500e+001
      vertex   -1.000000e+001 -1.375000e+000 3.212500e+001
      vertex   -1.000000e+001 8.625000e+000 3.212500e+001
    endloop
  endfacet
  facet normal -1.000000e+000 -3.552714e-016 0.000000e+000
    outer loop
      vertex   -1.250000e+001 -1.375000e+000 2.962500e+001
      vertex   -1.250000e+001 -1.375000e+000 3.212500e+001
      vertex   -1.250000e+001 8.625000e+000 2.962500e+001
    endloop
  endfacet
  facet normal -1.000000e+000 -3.552714e-016 0.000000e+000
    outer loop
      vertex   -1.250000e+001 8.625000e+000 2.962500e+001
      vertex   -1.250000e+001 -1.375000e+000 3.212500e+001
      vertex   -1.250000e+001 8.625000e+000 3.212500e+001
    endloop
  endfacet
  facet normal -1.421085e-015 -5.048710e-031 -1.000000e+000
    outer loop
      vertex   -1.000000e+001 -1.375000e+000 2.962500e+001
      vertex   -1.250000e+001 -1.375000e+000 2.962500e+001
      vertex   -1.000000e+001 8.625000e+000 2.962500e+001
    endloop
  endfacet
  facet normal -1.421085e-015 -5.048710e-031 -1.000000e+000
    outer loop
      vertex   -1.000000e+001 8.625000e+000 2.962500e+001
      vertex   -1.250000e+001 -1.375000e+000 2.962500e+001
      vertex   -1.250000e+001 8.625000e+000 2.962500e+001
    endloop
  endfacet
  facet normal 1.000000e+000 3.552714e-016 0.000000e+000
    outer loop
      vertex   -1.000000e+001 -1.375000e+000 3.212500e+001
      vertex   -1.000000e+001 -1.375000e+000 2.962500e+001
      vertex   -1.000000e+001 8.625000e+000 3.212500e+001
    endloop
  endfacet
  facet normal 1.000000e+000 3.552714e-016 0.000000e+000
    outer loop
      vertex   -1.000000e+001 8.625000e+000 3.212500e+001
      vertex   -1.000000e+001 -1.375000e+000 2.962500e+001
      vertex   -1.000000e+001 8.625000e+000 2.962500e+001
    endloop
  endfacet
  facet normal 0.000000e+000 1.000000e+000 0.000000e+000
    outer loop
      vertex   -1.000000e+001 8.625000e+000 3.212500e+001
      vertex   -1.000000e+001 8.625000e+000 2.962500e+001
      vertex   -1.250000e+001 8.625000e+000 3.212500e+001
    endloop
  endfacet
  facet normal 0.000000e+000 1.000000e+000 0.000000e+000
    outer loop
      vertex   -1.250000e+001 8.625000e+000 3.212500e+001
      vertex   -1.000000e+001 8.625000e+000 2.962500e+001
      vertex   -1.250000e+001 8.625000e+000 2.962500e+001
    endloop
  endfacet
  facet normal -0.000000e+000 -1.000000e+000 0.000000e+000
    outer loop
      vertex   -1.000000e+001 -1.375000e+000 2.962500e+001
      vertex   -1.000000e+001 -1.375000e+000 3.212500e+001
      vertex   -1.250000e+001 -1.375000e+000 2.962500e+001
    endloop
  endfacet
  facet normal 0.000000e+000 -1.000000e+000 0.000000e+000
    outer loop
      vertex   -1.250000e+001 -1.375000e+000 2.962500e+001
      vertex   -1.000000e+001 -1.375000e+000 3.212500e+001
      vertex   -1.250000e+001 -1.375000e+000 3.212500e+001
    endloop
  endfacet
endsolid
solid ascii
  facet normal 0.000000e+000 -0.000000e+000 1.000000e+000
    outer loop
      vertex   1.000000e+001 -1.375000e+000 3.212500e+001
      vertex   1.250000e+001 -1.375000e+000 3.212500e+001
      vertex   1.000000e+001 8.625000e+000 3.212500e+001
    endloop
  endfacet
  facet normal -0.000000e+000 -0.000000e+000 1.000000e+000
    outer loop
      vertex   1.000000e+001 8.625000e+000 3.212500e+001
      vertex   1.250000e+001 -1.375000e+000 3.212500e+001
      vertex   1.250000e+001 8.625000e+000 3.212500e+001
    endloop
  endfacet
  facet normal -1.000000e+000 -3.552714e-016 0.000000e+000
    outer loop
      vertex   1.000000e+001 -1.375000e+000 2.962500e+001
      vertex   1.000000e+001 -1.375000e+000 3.212500e+001
      vertex   1.000000e+001 8.625000e+000 2.962500e+001
    endloop
  endfacet
  facet normal -1.000000e+000 -3.552714e-016 0.000000e+000
    outer loop
      vertex   1.000000e+001 8.625000e+000 2.962500e+001
      vertex   1.000000e+001 -1.375000e+000 3.212500e+001
      vertex   1.000000e+001 8.625000e+000 3.212500e+001
    endloop
  endfacet
  facet normal 0.000000e+000 0.000000e+000 -1.000000e+000
    outer loop
      vertex   1.250000e+001 -1.375000e+000 2.962500e+001
      vertex   1.000000e+001 -1.375000e+000 2.962500e+001
      vertex   1.250000e+001 8.625000e+000 2.962500e+001
    endloop
  endfacet
  facet normal -0.000000e+000 0.000000e+000 -1.000000e+000
    outer loop
      vertex   1.250000e+001 8.625000e+000 2.962500e+001
      vertex   1.000000e+001 -1.375000e+000 2.962500e+001
      vertex   1.000000e+001 8.625000e+000 2.962500e+001
    endloop
  endfacet
  facet normal 1.000000e+000 3.552714e-016 0.000000e+000
    outer loop
      vertex   1.250000e+001 -1.375000e+000 3.212500e+001
      vertex   1.250000e+001 -1.375000e+000 2.962500e+001
      vertex   1.250000e+001 8.625000e+000 3.212500e+001
    endloop
  endfacet
  facet normal 1.000000e+000 3.552714e-016 0.000000e+000
    outer loop
      vertex   1.250000e+001 8.625000e+000 3.212500e+001
      vertex   1.250000e+001 -1.375000e+000 2.962500e+001
      vertex   1.250000e+001 8.625000e+000 2.962500e+001
    endloop
  endfacet
  facet normal 0.000000e+000 1.000000e+000 0.000000e+000
    outer loop
      vertex   1.250000e+001 8.625000e+000 3.212500e+001
      vertex   1.250000e+001 8.625000e+000 2.962500e+001
      vertex   1.000000e+001 8.625000e+000 3.212500e+001
    endloop
  endfacet
  facet normal 0.000000e+000 1.000000e+000 0.000000e+000
    outer loop
      vertex   1.000000e+001 8.625000e+000 3.212500e+001
      vertex   1.250000e+001 8.625000e+000 2.962500e+001
      vertex   1.000000e+001 8.625000e+000 2.962500e+001
    endloop
  endfacet
  facet normal -0.000000e+000 -1.000000e+000 0.000000e+000
    outer loop
      vertex   1.250000e+001 -1.375000e+000 2.962500e+001
      vertex   1.250000e+001 -1.375000e+000 3.212500e+001
      vertex   1.000000e+001 -1.375000e+000 2.962500e+001
    endloop
  endfacet
  facet normal 0.000000e+000 -1.000000e+000 0.000000e+000
    outer loop
      vertex   1.000000e+001 -1.375000e+000 2.962500e+001
      vertex   1.250000e+001 -1.375000e+000 3.212500e+001
      vertex   1.000000e+001 -1.375000e+000 3.212500e+001
    endloop
  endfacet
endsolid
solid ascii
  facet normal 0.000000e+000 -0.000000e+000 1.000000e+000
    outer loop
      vertex   -1.212500e+001 -6.125000e+000 -7.875000e+000
      vertex   -1.012500e+001 -6.125000e+000 -7.875000e+000
      vertex   -1.212500e+001 3.875000e+000 -7.875000e+000
    endloop
  endfacet
  facet normal -0.000000e+000 0.000000e+000 1.000000e+000
    outer loop
      vertex   -1.212500e+001 3.875000e+000 -7.875000e+000
      vertex   -1.012500e+001 -6.125000e+000 -7.875000e+000
      vertex   -1.012500e+001 3.875000e+000 -7.875000e+000
    endloop
  endfacet
  facet normal -1.000000e+000 0.000000e+000 0.000000e+000
    outer loop
      vertex   -1.212500e+001 -6.125000e+000 -9.875000e+000
      vertex   -1.212500e+001 -6.125000e+000 -7.875000e+000
      vertex   -1.212500e+001 3.875000e+000 -9.875000e+000
    endloop
  endfacet
  facet normal -1.000000e+000 0.000000e+000 0.000000e+000
    outer loop
      vertex   -1.212500e+001 3.875000e+000 -9.875000e+000
      vertex   -1.212500e+001 -6.125000e+000 -7.875000e+000
      vertex   -1.212500e+001 3.875000e+000 -7.875000e+000
    endloop
  endfacet
  facet normal -4.440892e-015 0.000000e+000 -1.000000e+000
    outer loop
      vertex   -1.012500e+001 -6.125000e+000 -9.875000e+000
      vertex   -1.212500e+001 -6.125000e+000 -9.875000e+000
      vertex   -1.012500e+001 3.875000e+000 -9.875000e+000
    endloop
  endfacet
  facet normal -4.440892e-015 0.000000e+000 -1.000000e+000
    outer loop
      vertex   -1.012500e+001 3.875000e+000 -9.875000e+000
      vertex   -1.212500e+001 -6.125000e+000 -9.875000e+000
      vertex   -1.212500e+001 3.875000e+000 -9.875000e+000
    endloop
  endfacet
  facet normal 1.000000e+000 -0.000000e+000 0.000000e+000
    outer loop
      vertex   -1.012500e+001 -6.125000e+000 -7.875000e+000
      vertex   -1.012500e+001 -6.125000e+000 -9.875000e+000
      vertex   -1.012500e+001 3.875000e+000 -7.875000e+000
    endloop
  endfacet
  facet normal 1.000000e+000 -0.000000e+000 0.000000e+000
    outer loop
      vertex   -1.012500e+001 3.875000e+000 -7.875000e+000
      vertex   -1.012500e+001 -6.125000e+000 -9.875000e+000
      vertex   -1.012500e+001 3.875000e+000 -9.875000e+000
    endloop
  endfacet
  facet normal 0.000000e+000 1.000000e+000 0.000000e+000
    outer loop
      vertex   -1.012500e+001 3.875000e+000 -7.875000e+000
      vertex   -1.012500e+001 3.875000e+000 -9.875000e+000
      vertex   -1.212500e+001 3.875000e+000 -7.875000e+000
    endloop
  endfacet
  facet normal 0.000000e+000 1.000000e+000 0.000000e+000
    outer loop
      vertex   -1.212500e+001 3.875000e+000 -7.875000e+000
      vertex   -1.012500e+001 3.875000e+000 -9.875000e+000
      vertex   -1.212500e+001 3.875000e+000 -9.875000e+000
    endloop
  endfacet
  facet normal -0.000000e+000 -1.000000e+000 0.000000e+000
    outer loop
      vertex   -1.012500e+001 -6.125000e+000 -9.875000e+000
      vertex   -1.012500e+001 -6.125000e+000 -7.875000e+000
      vertex   -1.212500e+001 -6.125000e+000 -9.875000e+000
    endloop
  endfacet
  facet normal 0.000000e+000 -1.000000e+000 0.000000e+000
    outer loop
      vertex   -1.212500e+001 -6.125000e+000 -9.875000e+000
      vertex   -1.012500e+001 -6.125000e+000 -7.875000e+000
      vertex   -1.212500e+001 -6.125000e+000 -7.875000e+000
    endloop
  endfacet
endsolid
solid ascii
  facet normal 0.000000e+000 -0.000000e+000 1.000000e+000
    outer loop
      vertex   -1.212500e+001 -6.125000e+000 2.087500e+001
      vertex   -1.012500e+001 -6.125000e+000 2.087500e+001
      vertex   -1.212500e+001 3.875000e+000 2.087500e+001
    endloop
  endfacet
  facet normal -0.000000e+000 -0.000000e+000 1.000000e+000
    outer loop
      vertex   -1.212500e+001 3.875000e+000 2.087500e+001
      vertex   -1.012500e+001 -6.125000e+000 2.087500e+001
      vertex   -1.012500e+001 3.875000e+000 2.087500e+001
    endloop
  endfacet
  facet normal -1.000000e+000 0.000000e+000 0.000000e+000
    outer loop
      vertex   -1.212500e+001 -6.125000e+000 1.887500e+001
      vertex   -1.212500e+001 -6.125000e+000 2.087500e+001
      vertex   -1.212500e+001 3.875000e+000 1.887500e+001
    endloop
  endfacet
  facet normal -1.000000e+000 0.000000e+000 0.000000e+000
    outer loop
      vertex   -1.212500e+001 3.875000e+000 1.887500e+001
      vertex   -1.212500e+001 -6.125000e+000 2.087500e+001
      vertex   -1.212500e+001 3.875000e+000 2.087500e+001
    endloop
  endfacet
  facet normal 0.000000e+000 0.000000e+000 -1.000000e+000
    outer loop
      vertex   -1.012500e+001 -6.125000e+000 1.887500e+001
      vertex   -1.212500e+001 -6.125000e+000 1.887500e+001
      vertex   -1.012500e+001 3.875000e+000 1.887500e+001
    endloop
  endfacet
  facet normal -0.000000e+000 0.000000e+000 -1.000000e+000
    outer loop
      vertex   -1.012500e+001 3.875000e+000 1.887500e+001
      vertex   -1.212500e+001 -6.125000e+000 1.887500e+001
      vertex   -1.212500e+001 3.875000e+000 1.887500e+001
    endloop
  endfacet
  facet normal 1.000000e+000 5.329071e-016 0.000000e+000
    outer loop
      vertex   -1.012500e+001 -6.125000e+000 2.087500e+001
      vertex   -1.012500e+001 -6.125000e+000 1.887500e+001
      vertex   -1.012500e+001 3.875000e+000 2.087500e+001
    endloop
  endfacet
  facet normal 1.000000e+000 5.329071e-016 0.000000e+000
    outer loop
      vertex   -1.012500e+001 3.875000e+000 2.087500e+001
      vertex   -1.012500e+001 -6.125000e+000 1.887500e+001
      vertex   -1.012500e+001 3.875000e+000 1.887500e+001
    endloop
  endfacet
  facet normal 0.000000e+000 1.000000e+000 0.000000e+000
    outer loop
      vertex   -1.012500e+001 3.875000e+000 2.087500e+001
      vertex   -1.012500e+001 3.875000e+000 1.887500e+001
      vertex   -1.212500e+001 3.875000e+000 2.087500e+001
    endloop
  endfacet
  facet normal 0.000000e+000 1.000000e+000 0.000000e+000
    outer loop
      vertex   -1.212500e+001 3.875000e+000 2.087500e+001
      vertex   -1.012500e+001 3.875000e+000 1.887500e+001
      vertex   -1.212500e+001 3.875000e+000 1.887500e+001
    endloop
  endfacet
  facet normal -0.000000e+000 -1.000000e+000 0.000000e+000
    outer loop
      vertex   -1.012500e+001 -6.125000e+000 1.887500e+001
      vertex   -1.012500e+001 -6.125000e+000 2.087500e+001
      vertex   -1.212500e+001 -6.125000e+000 1.887500e+001
    endloop
  endfacet
  facet normal 0.000000e+000 -1.000000e+000 0.000000e+000
    outer loop
      vertex   -1.212500e+001 -6.125000e+000 1.887500e+001
      vertex   -1.012500e+001 -6.125000e+000 2.087500e+001
      vertex   -1.212500e+001 -6.125000e+000 2.087500e+001
    endloop
  endfacet
endsolid
solid ascii
  facet normal 0.000000e+000 -0.000000e+000 1.000000e+000
    outer loop
      vertex   1.012500e+001 -6.125000e+000 -7.875000e+000
      vertex   1.212500e+001 -6.125000e+000 -7.875000e+000
      vertex   1.012500e+001 3.875000e+000 -7.875000e+000
    endloop
  endfacet
  facet normal -0.000000e+000 0.000000e+000 1.000000e+000
    outer loop
      vertex   1.012500e+001 3.875000e+000 -7.875000e+000
      vertex   1.212500e+001 -6.125000e+000 -7.875000e+000
      vertex   1.212500e+001 3.875000e+000 -7.875000e+000
    endloop
  endfacet
  facet normal -1.000000e+000 -3.552714e-016 0.000000e+000
    outer loop
      vertex   1.012500e+001 -6.125000e+000 -9.875000e+000
      vertex   1.012500e+001 -6.125000e+000 -7.875000e+000
      vertex   1.012500e+001 3.875000e+000 -9.875000e+000
    endloop
  endfacet
  facet normal -1.000000e+000 -3.552714e-016 0.000000e+000
    outer loop
      vertex   1.012500e+001 3.875000e+000 -9.875000e+000
      vertex   1.012500e+001 -6.125000e+000 -7.875000e+000
      vertex   1.012500e+001 3.875000e+000 -7.875000e+000
    endloop
  endfacet
  facet normal 0.000000e+000 0.000000e+000 -1.000000e+000
    outer loop
      vertex   1.212500e+001 -6.125000e+000 -9.875000e+000
      vertex   1.012500e+001 -6.125000e+000 -9.875000e+000
      vertex   1.212500e+001 3.875000e+000 -9.875000e+000
    endloop
  endfacet
  facet normal -0.000000e+000 0.000000e+000 -1.000000e+000
    outer loop
      vertex   1.212500e+001 3.875000e+000 -9.875000e+000
      vertex   1.012500e+001 -6.125000e+000 -9.875000e+000
      vertex   1.012500e+001 3.875000e+000 -9.875000e+000
    endloop
  endfacet
  facet normal 1.000000e+000 -0.000000e+000 0.000000e+000
    outer loop
      vertex   1.212500e+001 -6.125000e+000 -7.875000e+000
      vertex   1.212500e+001 -6.125000e+000 -9.875000e+000
      vertex   1.212500e+001 3.875000e+000 -7.875000e+000
    endloop
  endfacet
  facet normal 1.000000e+000 -0.000000e+000 0.000000e+000
    outer loop
      vertex   1.212500e+001 3.875000e+000 -7.875000e+000
      vertex   1.212500e+001 -6.125000e+000 -9.875000e+000
      vertex   1.212500e+001 3.875000e+000 -9.875000e+000
    endloop
  endfacet
  facet normal 0.000000e+000 1.000000e+000 0.000000e+000
    outer loop
      vertex   1.212500e+001 3.875000e+000 -7.875000e+000
      vertex   1.212500e+001 3.875000e+000 -9.875000e+000
      vertex   1.012500e+001 3.875000e+000 -7.875000e+000
    endloop
  endfacet
  facet normal 0.000000e+000 1.000000e+000 0.000000e+000
    outer loop
      vertex   1.012500e+001 3.875000e+000 -7.875000e+000
      vertex   1.212500e+001 3.875000e+000 -9.875000e+000
      vertex   1.012500e+001 3.875000e+000 -9.875000e+000
    endloop
  endfacet
  facet normal -0.000000e+000 -1.000000e+000 0.000000e+000
    outer loop
      vertex   1.212500e+001 -6.125000e+000 -9.875000e+000
      vertex   1.212500e+001 -6.125000e+000 -7.875000e+000
      vertex   1.012500e+001 -6.125000e+000 -9.875000e+000
    endloop
  endfacet
  facet normal 0.000000e+000 -1.000000e+000 0.000000e+000
    outer loop
      vertex   1.012500e+001 -6.125000e+000 -9.875000e+000
      vertex   1.212500e+001 -6.125000e+000 -7.875000e+000
      vertex   1.012500e+001 -6.125000e+000 -7.875000e+000
    endloop
  endfacet
endsolid
solid ascii
  facet normal 0.000000e+000 -0.000000e+000 1.000000e+000
    outer loop
      vertex   1.012500e+001 -6.125000e+000 2.087500e+001
      vertex   1.212500e+001 -6.125000e+000 2.087500e+001
      vertex   1.012500e+001 3.875000e+000 2.087500e+001
    endloop
  endfacet
  facet normal -0.000000e+000 -0.000000e+000 1.000000e+000
    outer loop
      vertex   1.012500e+001 3.875000e+000 2.087500e+001
      vertex   1.212500e+001 -6.125000e+000 2.087500e+001
      vertex   1.212500e+001 3.875000e+000 2.087500e+001
    endloop
  endfacet
  facet normal -1.000000e+000 0.000000e+000 0.000000e+000
    outer loop
      vertex   1.012500e+001 -6.125000e+000 1.887500e+001
      vertex   1.012500e+001 -6.125000e+000 2.087500e+001
      vertex   1.012500e+001 3.875000e+000 1.887500e+001
    endloop
  endfacet
  facet normal -1.000000e+000 0.000000e+000 0.000000e+000
    outer loop
      vertex   1.012500e+001 3.875000e+000 1.887500e+001
      vertex   1.012500e+001 -6.125000e+000 2.087500e+001
      vertex   1.012500e+001 3.875000e+000 2.087500e+001
    endloop
  endfacet
  facet normal 0.000000e+000 0.000000e+000 -1.000000e+000
    outer loop
      vertex   1.212500e+001 -6.125000e+000 1.887500e+001
      vertex   1.012500e+001 -6.125000e+000 1.887500e+001
      vertex   1.212500e+001 3.875000e+000 1.887500e+001
    endloop
  endfacet
  facet normal -0.000000e+000 0.000000e+000 -1.000000e+000
    outer loop
      vertex   1.212500e+001 3.875000e+000 1.887500e+001
      vertex   1.012500e+001 -6.125000e+000 1.887500e+001
      vertex   1.012500e+001 3.875000e+000 1.887500e+001
    endloop
  endfacet
  facet normal 1.000000e+000 5.329071e-016 0.000000e+000
    outer loop
      vertex   1.212500e+001 -6.125000e+000 2.087500e+001
      vertex   1.212500e+001 -6.125000e+000 1.887500e+001
      vertex   1.212500e+001 3.875000e+000 2.087500e+001
    endloop
  endfacet
  facet normal 1.000000e+000 5.329071e-016 0.000000e+000
    outer loop
      vertex   1.212500e+001 3.875000e+000 2.087500e+001
      vertex   1.212500e+001 -6.125000e+000 1.887500e+001
      vertex   1.212500e+001 3.875000e+000 1.887500e+001
    endloop
  endfacet
  facet normal 0.000000e+000 1.000000e+000 0.000000e+000
    outer loop
      vertex   1.212500e+001 3.875000e+000 2.087500e+001
      vertex   1.212500e+001 3.875000e+000 1.887500e+001
      vertex   1.012500e+001 3.875000e+000 2.087500e+001
    endloop
  endfacet
  facet normal 0.000000e+000 1.000000e+000 0.000000e+000
    outer loop
      vertex   1.012500e+001 3.875000e+000 2.087500e+001
      vertex   1.212500e+001 3.875000e+000 1.887500e+001
      vertex   1.012500e+001 3.875000e+000 1.887500e+001
    endloop
  endfacet
  facet normal -0.000000e+000 -1.000000e+000 0.000000e+000
    outer loop
      vertex   1.212500e+001 -6.125000e+000 1.887500e+001
      vertex   1.212500e+001 -6.125000e+000 2.087500e+001
      vertex   1.012500e+001 -6.125000e+000 1.887500e+001
    endloop
  endfacet
  facet normal 0.000000e+000 -1.000000e+000 0.000000e+000
    outer loop
      vertex   1.012500e+001 -6.125000e+000 1.887500e+001
      vertex   1.212500e+001 -6.125000e+000 2.087500e+001
      vertex   1.012500e+001 -6.125000e+000 2.087500e+001
    endloop
  endfacet
endsolid
solid ascii
  facet normal 1.000000e+000 1.421085e-015 0.000000e+000
    outer loop
      vertex   1.000000e+001 1.887500e+000 -7.750000e+000
      vertex   1.000000e+001 1.887500e+000 -9.750000e+000
      vertex   1.000000e+001 4.387500e+000 -7.750000e+000
    endloop
  endfacet
  facet normal 1.000000e+000 1.421085e-015 0.000000e+000
    outer loop
      vertex   1.000000e+001 4.387500e+000 -7.750000e+000
      vertex   1.000000e+001 1.887500e+000 -9.750000e+000
      vertex   1.000000e+001 4.387500e+000 -9.750000e+000
    endloop
  endfacet
  facet normal 2.220446e-016 0.000000e+000 1.000000e+000
    outer loop
      vertex   -1.000000e+001 1.887500e+000 -7.750000e+000
      vertex   1.000000e+001 1.887500e+000 -7.750000e+000
      vertex   -1.000000e+001 4.387500e+000 -7.750000e+000
    endloop
  endfacet
  facet normal 2.220446e-016 3.155444e-031 1.000000e+000
    outer loop
      vertex   -1.000000e+001 4.387500e+000 -7.750000e+000
      vertex   1.000000e+001 1.887500e+000 -7.750000e+000
      vertex   1.000000e+001 4.387500e+000 -7.750000e+000
    endloop
  endfacet
  facet normal -1.000000e+000 0.000000e+000 0.000000e+000
    outer loop
      vertex   -1.000000e+001 1.887500e+000 -9.750000e+000
      vertex   -1.000000e+001 1.887500e+000 -7.750000e+000
      vertex   -1.000000e+001 4.387500e+000 -9.750000e+000
    endloop
  endfacet
  facet normal -1.000000e+000 0.000000e+000 0.000000e+000
    outer loop
      vertex   -1.000000e+001 4.387500e+000 -9.750000e+000
      vertex   -1.000000e+001 1.887500e+000 -7.750000e+000
      vertex   -1.000000e+001 4.387500e+000 -7.750000e+000
    endloop
  endfacet
  facet normal -0.000000e+000 0.000000e+000 -1.000000e+000
    outer loop
      vertex   1.000000e+001 1.887500e+000 -9.750000e+000
      vertex   -1.000000e+001 1.887500e+000 -9.750000e+000
      vertex   1.000000e+001 4.387500e+000 -9.750000e+000
    endloop
  endfacet
  facet normal -0.000000e+000 0.000000e+000 -1.000000e+000
    outer loop
      vertex   1.000000e+001 4.387500e+000 -9.750000e+000
      vertex   -1.000000e+001 1.887500e+000 -9.750000e+000
      vertex   -1.000000e+001 4.387500e+000 -9.750000e+000
    endloop
  endfacet
  facet normal -2.220446e-016 1.000000e+000 0.000000e+000
    outer loop
      vertex   -1.000000e+001 4.387500e+000 -9.750000e+000
      vertex   -1.000000e+001 4.387500e+000 -7.750000e+000
      vertex   1.000000e+001 4.387500e+000 -9.750000e+000
    endloop
  endfacet
  facet normal -2.220446e-016 1.000000e+000 0.000000e+000
    outer loop
      vertex   1.000000e+001 4.387500e+000 -9.750000e+000
      vertex   -1.000000e+001 4.387500e+000 -7.750000e+000
      vertex   1.000000e+001 4.387500e+000 -7.750000e+000
    endloop
  endfacet
  facet normal 2.220446e-016 -1.000000e+000 0.000000e+000
    outer loop
      vertex   1.000000e+001 1.887500e+000 -9.750000e+000
      vertex   1.000000e+001 1.887500e+000 -7.750000e+000
      vertex   -1.000000e+001 1.887500e+000 -9.750000e+000
    endloop
  endfacet
  facet normal 2.220446e-016 -1.000000e+000 0.000000e+000
    outer loop
      vertex   -1.000000e+001 1.887500e+000 -9.750000e+000
      vertex   1.000000e+001 1.887500e+000 -7.750000e+000
      vertex   -1.000000e+001 1.887500e+000 -7.750000e+000
    endloop
  endfacet
endsolid
solid ascii
  facet normal 1.000000e+000 -0.000000e+000 0.000000e+000
    outer loop
      vertex   1.000000e+001 1.887500e+000 2.125000e+001
      vertex   1.000000e+001 1.887500e+000 1.925000e+001
      vertex   1.000000e+001 4.387500e+000 2.125000e+001
    endloop
  endfacet
  facet normal 1.000000e+000 -0.000000e+000 0.000000e+000
    outer loop
      vertex   1.000000e+001 4.387500e+000 2.125000e+001
      vertex   1.000000e+001 1.887500e+000 1.925000e+001
      vertex   1.000000e+001 4.387500e+000 1.925000e+001
    endloop
  endfacet
  facet normal 1.776357e-016 0.000000e+000 1.000000e+000
    outer loop
      vertex   -1.000000e+001 1.887500e+000 2.125000e+001
      vertex   1.000000e+001 1.887500e+000 2.125000e+001
      vertex   -1.000000e+001 4.387500e+000 2.125000e+001
    endloop
  endfacet
  facet normal 1.776357e-016 -0.000000e+000 1.000000e+000
    outer loop
      vertex   -1.000000e+001 4.387500e+000 2.125000e+001
      vertex   1.000000e+001 1.887500e+000 2.125000e+001
      vertex   1.000000e+001 4.387500e+000 2.125000e+001
    endloop
  endfacet
  facet normal -1.000000e+000 0.000000e+000 0.000000e+000
    outer loop
      vertex   -1.000000e+001 1.887500e+000 1.925000e+001
      vertex   -1.000000e+001 1.887500e+000 2.125000e+001
      vertex   -1.000000e+001 4.387500e+000 1.925000e+001
    endloop
  endfacet
  facet normal -1.000000e+000 0.000000e+000 0.000000e+000
    outer loop
      vertex   -1.000000e+001 4.387500e+000 1.925000e+001
      vertex   -1.000000e+001 1.887500e+000 2.125000e+001
      vertex   -1.000000e+001 4.387500e+000 2.125000e+001
    endloop
  endfacet
  facet normal -1.776357e-016 0.000000e+000 -1.000000e+000
    outer loop
      vertex   1.000000e+001 1.887500e+000 1.925000e+001
      vertex   -1.000000e+001 1.887500e+000 1.925000e+001
      vertex   1.000000e+001 4.387500e+000 1.925000e+001
    endloop
  endfacet
  facet normal -1.776357e-016 0.000000e+000 -1.000000e+000
    outer loop
      vertex   1.000000e+001 4.387500e+000 1.925000e+001
      vertex   -1.000000e+001 1.887500e+000 1.925000e+001
      vertex   -1.000000e+001 4.387500e+000 1.925000e+001
    endloop
  endfacet
  facet normal -2.220446e-016 1.000000e+000 0.000000e+000
    outer loop
      vertex   -1.000000e+001 4.387500e+000 1.925000e+001
      vertex   -1.000000e+001 4.387500e+000 2.125000e+001
      vertex   1.000000e+001 4.387500e+000 1.925000e+001
    endloop
  endfacet
  facet normal -2.220446e-016 1.000000e+000 0.000000e+000
    outer loop
      vertex   1.000000e+001 4.387500e+000 1.925000e+001
      vertex   -1.000000e+001 4.387500e+000 2.125000e+001
      vertex   1.000000e+001 4.387500e+000 2.125000e+001
    endloop
  endfacet
  facet normal 2.220446e-016 -1.000000e+000 0.000000e+000
    outer loop
      vertex   1.000000e+001 1.887500e+000 1.925000e+001
      vertex   1.000000e+001 1.887500e+000 2.125000e+001
      vertex   -1.000000e+001 1.887500e+000 1.925000e+001
    endloop
  endfacet
  facet normal 2.220446e-016 -1.000000e+000 0.000000e+000
    outer loop
      vertex   -1.000000e+001 1.887500e+000 1.925000e+001
      vertex   1.000000e+001 1.887500e+000 2.125000e+001
      vertex   -1.000000e+001 1.887500e+000 2.125000e+001
    endloop
  endfacet
endsolid
solid ascii
  facet normal 0.000000e+000 -0.000000e+000 1.000000e+000
    outer loop
      vertex   1.000000e+001 3.875000e+000 2.512500e+001
      vertex   1.250000e+001 3.875000e+000 2.512500e+001
      vertex   1.000000e+001 6.375000e+000 2.512500e+001
    endloop
  endfacet
  facet normal -0.000000e+000 0.000000e+000 1.000000e+000
    outer loop
      vertex   1.000000e+001 6.375000e+000 2.512500e+001
      vertex   1.250000e+001 3.875000e+000 2.512500e+001
      vertex   1.250000e+001 6.375000e+000 2.512500e+001
    endloop
  endfacet
  facet normal -1.000000e+000 0.000000e+000 2.220446e-016
    outer loop
      vertex   1.000000e+001 3.875000e+000 -1.487500e+001
      vertex   1.000000e+001 3.875000e+000 2.512500e+001
      vertex   1.000000e+001 6.375000e+000 -1.487500e+001
    endloop
  endfacet
  facet normal -1.000000e+000 0.000000e+000 2.220446e-016
    outer loop
      vertex   1.000000e+001 6.375000e+000 -1.487500e+001
      vertex   1.000000e+001 3.875000e+000 2.512500e+001
      vertex   1.000000e+001 6.375000e+000 2.512500e+001
    endloop
  endfacet
  facet normal 0.000000e+000 0.000000e+000 -1.000000e+000
    outer loop
      vertex   1.250000e+001 3.875000e+000 -1.487500e+001
      vertex   1.000000e+001 3.875000e+000 -1.487500e+001
      vertex   1.250000e+001 6.375000e+000 -1.487500e+001
    endloop
  endfacet
  facet normal -0.000000e+000 0.000000e+000 -1.000000e+000
    outer loop
      vertex   1.250000e+001 6.375000e+000 -1.487500e+001
      vertex   1.000000e+001 3.875000e+000 -1.487500e+001
      vertex   1.000000e+001 6.375000e+000 -1.487500e+001
    endloop
  endfacet
  facet normal 1.000000e+000 0.000000e+000 -2.220446e-016
    outer loop
      vertex   1.250000e+001 3.875000e+000 2.512500e+001
      vertex   1.250000e+001 3.875000e+000 -1.487500e+001
      vertex   1.250000e+001 6.375000e+000 2.512500e+001
    endloop
  endfacet
  facet normal 1.000000e+000 0.000000e+000 -2.220446e-016
    outer loop
      vertex   1.250000e+001 6.375000e+000 2.512500e+001
      vertex   1.250000e+001 3.875000e+000 -1.487500e+001
      vertex   1.250000e+001 6.375000e+000 -1.487500e+001
    endloop
  endfacet
  facet normal 0.000000e+000 1.000000e+000 0.000000e+000
    outer loop
      vertex   1.250000e+001 6.375000e+000 2.512500e+001
      vertex   1.250000e+001 6.375000e+000 -1.487500e+001
      vertex   1.000000e+001 6.375000e+000 2.512500e+001
    endloop
  endfacet
  facet normal 0.000000e+000 1.000000e+000 0.000000e+000
    outer loop
      vertex   1.000000e+001 6.375000e+000 2.512500e+001
      vertex   1.250000e+001 6.375000e+000 -1.487500e+001
      vertex   1.000000e+001 6.375000e+000 -1.487500e+001
    endloop
  endfacet
  facet normal -0.000000e+000 -1.000000e+000 0.000000e+000
    outer loop
      vertex   1.250000e+001 3.875000e+000 -1.487500e+001
      vertex   1.250000e+001 3.875000e+000 2.512500e+001
      vertex   1.000000e+001 3.875000e+000 -1.487500e+001
    endloop
  endfacet
  facet normal 0.000000e+000 -1.000000e+000 0.000000e+000
    outer loop
      vertex   1.000000e+001 3.875000e+000 -1.487500e+001
      vertex   1.250000e+001 3.875000e+000 2.512500e+001
      vertex   1.000000e+001 3.875000e+000 2.512500e+001
    endloop
  endfacet
endsolid
solid ascii
  facet normal 1.000000e+000 0.000000e+000 -2.220446e-016
    outer loop
      vertex   1.000000e+000 4.375000e+000 2.512500e+001
      vertex   1.000000e+000 4.375000e+000 -1.487500e+001
      vertex   1.000000e+000 6.375000e+000 2.512500e+001
    endloop
  endfacet
  facet normal 1.000000e+000 0.000000e+000 -2.220446e-016
    outer loop
      vertex   1.000000e+000 6.375000e+000 2.512500e+001
      vertex   1.000000e+000 4.375000e+000 -1.487500e+001
      vertex   1.000000e+000 6.375000e+000 -1.487500e+001
    endloop
  endfacet
  facet normal 0.000000e+000 -0.000000e+000 1.000000e+000
    outer loop
      vertex   -1.000000e+000 4.375000e+000 2.512500e+001
      vertex   1.000000e+000 4.375000e+000 2.512500e+001
      vertex   -1.000000e+000 6.375000e+000 2.512500e+001
    endloop
  endfacet
  facet normal -0.000000e+000 0.000000e+000 1.000000e+000
    outer loop
      vertex   -1.000000e+000 6.375000e+000 2.512500e+001
      vertex   1.000000e+000 4.375000e+000 2.512500e+001
      vertex   1.000000e+000 6.375000e+000 2.512500e+001
    endloop
  endfacet
  facet normal -1.000000e+000 0.000000e+000 2.220446e-016
    outer loop
      vertex   -1.000000e+000 4.375000e+000 -1.487500e+001
      vertex   -1.000000e+000 4.375000e+000 2.512500e+001
      vertex   -1.000000e+000 6.375000e+000 -1.487500e+001
    endloop
  endfacet
  facet normal -1.000000e+000 0.000000e+000 2.220446e-016
    outer loop
      vertex   -1.000000e+000 6.375000e+000 -1.487500e+001
      vertex   -1.000000e+000 4.375000e+000 2.512500e+001
      vertex   -1.000000e+000 6.375000e+000 2.512500e+001
    endloop
  endfacet
  facet normal 0.000000e+000 0.000000e+000 -1.000000e+000
    outer loop
      vertex   1.000000e+000 4.375000e+000 -1.487500e+001
      vertex   -1.000000e+000 4.375000e+000 -1.487500e+001
      vertex   1.000000e+000 6.375000e+000 -1.487500e+001
    endloop
  endfacet
  facet normal -0.000000e+000 0.000000e+000 -1.000000e+000
    outer loop
      vertex   1.000000e+000 6.375000e+000 -1.487500e+001
      vertex   -1.000000e+000 4.375000e+000 -1.487500e+001
      vertex   -1.000000e+000 6.375000e+000 -1.487500e+001
    endloop
  endfacet
  facet normal -0.000000e+000 1.000000e+000 0.000000e+000
    outer loop
      vertex   -1.000000e+000 6.375000e+000 -1.487500e+001
      vertex   -1.000000e+000 6.375000e+000 2.512500e+001
      vertex   1.000000e+000 6.375000e+000 -1.487500e+001
    endloop
  endfacet
  facet normal 0.000000e+000 1.000000e+000 -0.000000e+000
    outer loop
      vertex   1.000000e+000 6.375000e+000 -1.487500e+001
      vertex   -1.000000e+000 6.375000e+000 2.512500e+001
      vertex   1.000000e+000 6.375000e+000 2.512500e+001
    endloop
  endfacet
  facet normal -0.000000e+000 -1.000000e+000 0.000000e+000
    outer loop
      vertex   1.000000e+000 4.375000e+000 -1.487500e+001
      vertex   1.000000e+000 4.375000e+000 2.512500e+001
      vertex   -1.000000e+000 4.375000e+000 -1.487500e+001
    endloop
  endfacet
  facet normal 0.000000e+000 -1.000000e+000 0.000000e+000
    outer loop
      vertex   -1.000000e+000 4.375000e+000 -1.487500e+001
      vertex   1.000000e+000 4.375000e+000 2.512500e+001
      vertex   -1.000000e+000 4.375000e+000 2.512500e+001
    endloop
  endfacet
endsolid
solid ascii
  facet normal 1.000000e+000 0.000000e+000 -2.220446e-016
    outer loop
      vertex   4.000000e+000 4.375000e+000 2.512500e+001
      vertex   4.000000e+000 4.375000e+000 -1.487500e+001
      vertex   4.000000e+000 6.375000e+000 2.512500e+001
    endloop
  endfacet
  facet normal 1.000000e+000 0.000000e+000 -2.220446e-016
    outer loop
      vertex   4.000000e+000 6.375000e+000 2.512500e+001
      vertex   4.000000e+000 4.375000e+000 -1.487500e+001
      vertex   4.000000e+000 6.375000e+000 -1.487500e+001
    endloop
  endfacet
  facet normal 0.000000e+000 -0.000000e+000 1.000000e+000
    outer loop
      vertex   2.000000e+000 4.375000e+000 2.512500e+001
      vertex   4.000000e+000 4.375000e+000 2.512500e+001
      vertex   2.000000e+000 6.375000e+000 2.512500e+001
    endloop
  endfacet
  facet normal -0.000000e+000 0.000000e+000 1.000000e+000
    outer loop
      vertex   2.000000e+000 6.375000e+000 2.512500e+001
      vertex   4.000000e+000 4.375000e+000 2.512500e+001
      vertex   4.000000e+000 6.375000e+000 2.512500e+001
    endloop
  endfacet
  facet normal -1.000000e+000 -2.220446e-015 2.220446e-016
    outer loop
      vertex   2.000000e+000 4.375000e+000 -1.487500e+001
      vertex   2.000000e+000 4.375000e+000 2.512500e+001
      vertex   2.000000e+000 6.375000e+000 -1.487500e+001
    endloop
  endfacet
  facet normal -1.000000e+000 -2.220446e-015 2.220446e-016
    outer loop
      vertex   2.000000e+000 6.375000e+000 -1.487500e+001
      vertex   2.000000e+000 4.375000e+000 2.512500e+001
      vertex   2.000000e+000 6.375000e+000 2.512500e+001
    endloop
  endfacet
  facet normal 0.000000e+000 0.000000e+000 -1.000000e+000
    outer loop
      vertex   4.000000e+000 4.375000e+000 -1.487500e+001
      vertex   2.000000e+000 4.375000e+000 -1.487500e+001
      vertex   4.000000e+000 6.375000e+000 -1.487500e+001
    endloop
  endfacet
  facet normal -0.000000e+000 0.000000e+000 -1.000000e+000
    outer loop
      vertex   4.000000e+000 6.375000e+000 -1.487500e+001
      vertex   2.000000e+000 4.375000e+000 -1.487500e+001
      vertex   2.000000e+000 6.375000e+000 -1.487500e+001
    endloop
  endfacet
  facet normal -0.000000e+000 1.000000e+000 0.000000e+000
    outer loop
      vertex   2.000000e+000 6.375000e+000 -1.487500e+001
      vertex   2.000000e+000 6.375000e+000 2.512500e+001
      vertex   4.000000e+000 6.375000e+000 -1.487500e+001
    endloop
  endfacet
  facet normal 0.000000e+000 1.000000e+000 -0.000000e+000
    outer loop
      vertex   4.000000e+000 6.375000e+000 -1.487500e+001
      vertex   2.000000e+000 6.375000e+000 2.512500e+001
      vertex   4.000000e+000 6.375000e+000 2.512500e+001
    endloop
  endfacet
  facet normal -0.000000e+000 -1.000000e+000 0.000000e+000
    outer loop
      vertex   4.000000e+000 4.375000e+000 -1.487500e+001
      vertex   4.000000e+000 4.375000e+000 2.512500e+001
      vertex   2.000000e+000 4.375000e+000 -1.487500e+001
    endloop
  endfacet
  facet normal 0.000000e+000 -1.000000e+000 0.000000e+000
    outer loop
      vertex   2.000000e+000 4.375000e+000 -1.487500e+001
      vertex   4.000000e+000 4.375000e+000 2.512500e+001
      vertex   2.000000e+000 4.375000e+000 2.512500e+001
    endloop
  endfacet
endsolid
solid ascii
  facet normal 1.000000e+000 0.000000e+000 -2.220446e-016
    outer loop
      vertex   7.000000e+000 4.375000e+000 2.512500e+001
      vertex   7.000000e+000 4.375000e+000 -1.487500e+001
      vertex   7.000000e+000 6.375000e+000 2.512500e+001
    endloop
  endfacet
  facet normal 1.000000e+000 0.000000e+000 -2.220446e-016
    outer loop
      vertex   7.000000e+000 6.375000e+000 2.512500e+001
      vertex   7.000000e+000 4.375000e+000 -1.487500e+001
      vertex   7.000000e+000 6.375000e+000 -1.487500e+001
    endloop
  endfacet
  facet normal 0.000000e+000 -0.000000e+000 1.000000e+000
    outer loop
      vertex   5.000000e+000 4.375000e+000 2.512500e+001
      vertex   7.000000e+000 4.375000e+000 2.512500e+001
      vertex   5.000000e+000 6.375000e+000 2.512500e+001
    endloop
  endfacet
  facet normal -0.000000e+000 0.000000e+000 1.000000e+000
    outer loop
      vertex   5.000000e+000 6.375000e+000 2.512500e+001
      vertex   7.000000e+000 4.375000e+000 2.512500e+001
      vertex   7.000000e+000 6.375000e+000 2.512500e+001
    endloop
  endfacet
  facet normal -1.000000e+000 0.000000e+000 2.220446e-016
    outer loop
      vertex   5.000000e+000 4.375000e+000 -1.487500e+001
      vertex   5.000000e+000 4.375000e+000 2.512500e+001
      vertex   5.000000e+000 6.375000e+000 -1.487500e+001
    endloop
  endfacet
  facet normal -1.000000e+000 0.000000e+000 2.220446e-016
    outer loop
      vertex   5.000000e+000 6.375000e+000 -1.487500e+001
      vertex   5.000000e+000 4.375000e+000 2.512500e+001
      vertex   5.000000e+000 6.375000e+000 2.512500e+001
    endloop
  endfacet
  facet normal 0.000000e+000 0.000000e+000 -1.000000e+000
    outer loop
      vertex   7.000000e+000 4.375000e+000 -1.487500e+001
      vertex   5.000000e+000 4.375000e+000 -1.487500e+001
      vertex   7.000000e+000 6.375000e+000 -1.487500e+001
    endloop
  endfacet
  facet normal -0.000000e+000 0.000000e+000 -1.000000e+000
    outer loop
      vertex   7.000000e+000 6.375000e+000 -1.487500e+001
      vertex   5.000000e+000 4.375000e+000 -1.487500e+001
      vertex   5.000000e+000 6.375000e+000 -1.487500e+001
    endloop
  endfacet
  facet normal -8.881784e-016 1.000000e+000 1.972152e-031
    outer loop
      vertex   5.000000e+000 6.375000e+000 -1.487500e+001
      vertex   5.000000e+000 6.375000e+000 2.512500e+001
      vertex   7.000000e+000 6.375000e+000 -1.487500e+001
    endloop
  endfacet
  facet normal -8.881784e-016 1.000000e+000 1.972152e-031
    outer loop
      vertex   7.000000e+000 6.375000e+000 -1.487500e+001
      vertex   5.000000e+000 6.375000e+000 2.512500e+001
      vertex   7.000000e+000 6.375000e+000 2.512500e+001
    endloop
  endfacet
  facet normal -0.000000e+000 -1.000000e+000 0.000000e+000
    outer loop
      vertex   7.000000e+000 4.375000e+000 -1.487500e+001
      vertex   7.000000e+000 4.375000e+000 2.512500e+001
      vertex   5.000000e+000 4.375000e+000 -1.487500e+001
    endloop
  endfacet
  facet normal 0.000000e+000 -1.000000e+000 0.000000e+000
    outer loop
      vertex   5.000000e+000 4.375000e+000 -1.487500e+001
      vertex   7.000000e+000 4.375000e+000 2.512500e+001
      vertex   5.000000e+000 4.375000e+000 2.512500e+001
    endloop
  endfacet
endsolid
solid ascii
  facet normal 1.000000e+000 2.220446e-015 -2.220446e-016
    outer loop
      vertex   -2.000000e+000 4.375000e+000 2.512500e+001
      vertex   -2.000000e+000 4.375000e+000 -1.487500e+001
      vertex   -2.000000e+000 6.375000e+000 2.512500e+001
    endloop
  endfacet
  facet normal 1.000000e+000 2.220446e-015 -2.220446e-016
    outer loop
      vertex   -2.000000e+000 6.375000e+000 2.512500e+001
      vertex   -2.000000e+000 4.375000e+000 -1.487500e+001
      vertex   -2.000000e+000 6.375000e+000 -1.487500e+001
    endloop
  endfacet
  facet normal 0.000000e+000 -0.000000e+000 1.000000e+000
    outer loop
      vertex   -4.000000e+000 4.375000e+000 2.512500e+001
      vertex   -2.000000e+000 4.375000e+000 2.512500e+001
      vertex   -4.000000e+000 6.375000e+000 2.512500e+001
    endloop
  endfacet
  facet normal -0.000000e+000 -0.000000e+000 1.000000e+000
    outer loop
      vertex   -4.000000e+000 6.375000e+000 2.512500e+001
      vertex   -2.000000e+000 4.375000e+000 2.512500e+001
      vertex   -2.000000e+000 6.375000e+000 2.512500e+001
    endloop
  endfacet
  facet normal -1.000000e+000 0.000000e+000 2.331468e-016
    outer loop
      vertex   -4.000000e+000 4.375000e+000 -1.487500e+001
      vertex   -4.000000e+000 4.375000e+000 2.512500e+001
      vertex   -4.000000e+000 6.375000e+000 -1.487500e+001
    endloop
  endfacet
  facet normal -1.000000e+000 0.000000e+000 2.331468e-016
    outer loop
      vertex   -4.000000e+000 6.375000e+000 -1.487500e+001
      vertex   -4.000000e+000 4.375000e+000 2.512500e+001
      vertex   -4.000000e+000 6.375000e+000 2.512500e+001
    endloop
  endfacet
  facet normal 0.000000e+000 0.000000e+000 -1.000000e+000
    outer loop
      vertex   -2.000000e+000 4.375000e+000 -1.487500e+001
      vertex   -4.000000e+000 4.375000e+000 -1.487500e+001
      vertex   -2.000000e+000 6.375000e+000 -1.487500e+001
    endloop
  endfacet
  facet normal -0.000000e+000 0.000000e+000 -1.000000e+000
    outer loop
      vertex   -2.000000e+000 6.375000e+000 -1.487500e+001
      vertex   -4.000000e+000 4.375000e+000 -1.487500e+001
      vertex   -4.000000e+000 6.375000e+000 -1.487500e+001
    endloop
  endfacet
  facet normal -0.000000e+000 1.000000e+000 0.000000e+000
    outer loop
      vertex   -4.000000e+000 6.375000e+000 -1.487500e+001
      vertex   -4.000000e+000 6.375000e+000 2.512500e+001
      vertex   -2.000000e+000 6.375000e+000 -1.487500e+001
    endloop
  endfacet
  facet normal 0.000000e+000 1.000000e+000 -0.000000e+000
    outer loop
      vertex   -2.000000e+000 6.375000e+000 -1.487500e+001
      vertex   -4.000000e+000 6.375000e+000 2.512500e+001
      vertex   -2.000000e+000 6.375000e+000 2.512500e+001
    endloop
  endfacet
  facet normal -0.000000e+000 -1.000000e+000 0.000000e+000
    outer loop
      vertex   -2.000000e+000 4.375000e+000 -1.487500e+001
      vertex   -2.000000e+000 4.375000e+000 2.512500e+001
      vertex   -4.000000e+000 4.375000e+000 -1.487500e+001
    endloop
  endfacet
  facet normal 0.000000e+000 -1.000000e+000 0.000000e+000
    outer loop
      vertex   -4.000000e+000 4.375000e+000 -1.487500e+001
      vertex   -2.000000e+000 4.375000e+000 2.512500e+001
      vertex   -4.000000e+000 4.375000e+000 2.512500e+001
    endloop
  endfacet
endsolid
solid ascii
  facet normal 1.000000e+000 0.000000e+000 -2.220446e-016
    outer loop
      vertex   -5.000000e+000 4.375000e+000 2.512500e+001
      vertex   -5.000000e+000 4.375000e+000 -1.487500e+001
      vertex   -5.000000e+000 6.375000e+000 2.512500e+001
    endloop
  endfacet
  facet normal 1.000000e+000 0.000000e+000 -2.220446e-016
    outer loop
      vertex   -5.000000e+000 6.375000e+000 2.512500e+001
      vertex   -5.000000e+000 4.375000e+000 -1.487500e+001
      vertex   -5.000000e+000 6.375000e+000 -1.487500e+001
    endloop
  endfacet
  facet normal 0.000000e+000 -0.000000e+000 1.000000e+000
    outer loop
      vertex   -7.000000e+000 4.375000e+000 2.512500e+001
      vertex   -5.000000e+000 4.375000e+000 2.512500e+001
      vertex   -7.000000e+000 6.375000e+000 2.512500e+001
    endloop
  endfacet
  facet normal -0.000000e+000 0.000000e+000 1.000000e+000
    outer loop
      vertex   -7.000000e+000 6.375000e+000 2.512500e+001
      vertex   -5.000000e+000 4.375000e+000 2.512500e+001
      vertex   -5.000000e+000 6.375000e+000 2.512500e+001
    endloop
  endfacet
  facet normal -1.000000e+000 0.000000e+000 2.220446e-016
    outer loop
      vertex   -7.000000e+000 4.375000e+000 -1.487500e+001
      vertex   -7.000000e+000 4.375000e+000 2.512500e+001
      vertex   -7.000000e+000 6.375000e+000 -1.487500e+001
    endloop
  endfacet
  facet normal -1.000000e+000 0.000000e+000 2.220446e-016
    outer loop
      vertex   -7.000000e+000 6.375000e+000 -1.487500e+001
      vertex   -7.000000e+000 4.375000e+000 2.512500e+001
      vertex   -7.000000e+000 6.375000e+000 2.512500e+001
    endloop
  endfacet
  facet normal 0.000000e+000 0.000000e+000 -1.000000e+000
    outer loop
      vertex   -5.000000e+000 4.375000e+000 -1.487500e+001
      vertex   -7.000000e+000 4.375000e+000 -1.487500e+001
      vertex   -5.000000e+000 6.375000e+000 -1.487500e+001
    endloop
  endfacet
  facet normal -0.000000e+000 0.000000e+000 -1.000000e+000
    outer loop
      vertex   -5.000000e+000 6.375000e+000 -1.487500e+001
      vertex   -7.000000e+000 4.375000e+000 -1.487500e+001
      vertex   -7.000000e+000 6.375000e+000 -1.487500e+001
    endloop
  endfacet
  facet normal -0.000000e+000 1.000000e+000 0.000000e+000
    outer loop
      vertex   -7.000000e+000 6.375000e+000 -1.487500e+001
      vertex   -7.000000e+000 6.375000e+000 2.512500e+001
      vertex   -5.000000e+000 6.375000e+000 -1.487500e+001
    endloop
  endfacet
  facet normal 0.000000e+000 1.000000e+000 -0.000000e+000
    outer loop
      vertex   -5.000000e+000 6.375000e+000 -1.487500e+001
      vertex   -7.000000e+000 6.375000e+000 2.512500e+001
      vertex   -5.000000e+000 6.375000e+000 2.512500e+001
    endloop
  endfacet
  facet normal -0.000000e+000 -1.000000e+000 0.000000e+000
    outer loop
      vertex   -5.000000e+000 4.375000e+000 -1.487500e+001
      vertex   -5.000000e+000 4.375000e+000 2.512500e+001
      vertex   -7.000000e+000 4.375000e+000 -1.487500e+001
    endloop
  endfacet
  facet normal 0.000000e+000 -1.000000e+000 0.000000e+000
    outer loop
      vertex   -7.000000e+000 4.375000e+000 -1.487500e+001
      vertex   -5.000000e+000 4.375000e+000 2.512500e+001
      vertex   -7.000000e+000 4.375000e+000 2.512500e+001
    endloop
  endfacet
endsolid
solid ascii
  facet normal 1.000000e+000 0.000000e+000 -2.220446e-016
    outer loop
      vertex   7.000000e+000 4.375000e+000 2.512500e+001
      vertex   7.000000e+000 4.375000e+000 -1.487500e+001
      vertex   7.000000e+000 6.375000e+000 2.512500e+001
    endloop
  endfacet
  facet normal 1.000000e+000 0.000000e+000 -2.220446e-016
    outer loop
      vertex   7.000000e+000 6.375000e+000 2.512500e+001
      vertex   7.000000e+000 4.375000e+000 -1.487500e+001
      vertex   7.000000e+000 6.375000e+000 -1.487500e+001
    endloop
  endfacet
  facet normal 0.000000e+000 -0.000000e+000 1.000000e+000
    outer loop
      vertex   5.000000e+000 4.375000e+000 2.512500e+001
      vertex   7.000000e+000 4.375000e+000 2.512500e+001
      vertex   5.000000e+000 6.375000e+000 2.512500e+001
    endloop
  endfacet
  facet normal -0.000000e+000 0.000000e+000 1.000000e+000
    outer loop
      vertex   5.000000e+000 6.375000e+000 2.512500e+001
      vertex   7.000000e+000 4.375000e+000 2.512500e+001
      vertex   7.000000e+000 6.375000e+000 2.512500e+001
    endloop
  endfacet
  facet normal -1.000000e+000 0.000000e+000 2.220446e-016
    outer loop
      vertex   5.000000e+000 4.375000e+000 -1.487500e+001
      vertex   5.000000e+000 4.375000e+000 2.512500e+001
      vertex   5.000000e+000 6.375000e+000 -1.487500e+001
    endloop
  endfacet
  facet normal -1.000000e+000 0.000000e+000 2.220446e-016
    outer loop
      vertex   5.000000e+000 6.375000e+000 -1.487500e+001
      vertex   5.000000e+000 4.375000e+000 2.512500e+001
      vertex   5.000000e+000 6.375000e+000 2.512500e+001
    endloop
  endfacet
  facet normal 0.000000e+000 0.000000e+000 -1.000000e+000
    outer loop
      vertex   7.000000e+000 4.375000e+000 -1.487500e+001
      vertex   5.000000e+000 4.375000e+000 -1.487500e+001
      vertex   7.000000e+000 6.375000e+000 -1.487500e+001
    endloop
  endfacet
  facet normal -0.000000e+000 0.000000e+000 -1.000000e+000
    outer loop
      vertex   7.000000e+000 6.375000e+000 -1.487500e+001
      vertex   5.000000e+000 4.375000e+000 -1.487500e+001
      vertex   5.000000e+000 6.375000e+000 -1.487500e+001
    endloop
  endfacet
  facet normal -8.881784e-016 1.000000e+000 1.972152e-031
    outer loop
      vertex   5.000000e+000 6.375000e+000 -1.487500e+001
      vertex   5.000000e+000 6.375000e+000 2.512500e+001
      vertex   7.000000e+000 6.375000e+000 -1.487500e+001
    endloop
  endfacet
  facet normal -8.881784e-016 1.000000e+000 1.972152e-031
    outer loop
      vertex   7.000000e+000 6.375000e+000 -1.487500e+001
      vertex   5.000000e+000 6.375000e+000 2.512500e+001
      vertex   7.000000e+000 6.375000e+000 2.512500e+001
    endloop
  endfacet
  facet normal -0.000000e+000 -1.000000e+000 0.000000e+000
    outer loop
      vertex   7.000000e+000 4.375000e+000 -1.487500e+001
      vertex   7.000000e+000 4.375000e+000 2.512500e+001
      vertex   5.000000e+000 4.375000e+000 -1.487500e+001
    endloop
  endfacet
  facet normal 0.000000e+000 -1.000000e+000 0.000000e+000
    outer loop
      vertex   5.000000e+000 4.375000e+000 -1.487500e+001
      vertex   7.000000e+000 4.375000e+000 2.512500e+001
      vertex   5.000000e+000 4.375000e+000 2.512500e+001
    endloop
  endfacet
endsolid
solid ascii
  facet normal 1.000000e+000 0.000000e+000 -2.220446e-016
    outer loop
      vertex   1.000000e+001 4.375000e+000 2.512500e+001
      vertex   1.000000e+001 4.375000e+000 -1.487500e+001
      vertex   1.000000e+001 6.375000e+000 2.512500e+001
    endloop
  endfacet
  facet normal 1.000000e+000 0.000000e+000 -2.220446e-016
    outer loop
      vertex   1.000000e+001 6.375000e+000 2.512500e+001
      vertex   1.000000e+001 4.375000e+000 -1.487500e+001
      vertex   1.000000e+001 6.375000e+000 -1.487500e+001
    endloop
  endfacet
  facet normal 0.000000e+000 -0.000000e+000 1.000000e+000
    outer loop
      vertex   8.000000e+000 4.375000e+000 2.512500e+001
      vertex   1.000000e+001 4.375000e+000 2.512500e+001
      vertex   8.000000e+000 6.375000e+000 2.512500e+001
    endloop
  endfacet
  facet normal -0.000000e+000 0.000000e+000 1.000000e+000
    outer loop
      vertex   8.000000e+000 6.375000e+000 2.512500e+001
      vertex   1.000000e+001 4.375000e+000 2.512500e+001
      vertex   1.000000e+001 6.375000e+000 2.512500e+001
    endloop
  endfacet
  facet normal -1.000000e+000 0.000000e+000 2.220446e-016
    outer loop
      vertex   8.000000e+000 4.375000e+000 -1.487500e+001
      vertex   8.000000e+000 4.375000e+000 2.512500e+001
      vertex   8.000000e+000 6.375000e+000 -1.487500e+001
    endloop
  endfacet
  facet normal -1.000000e+000 0.000000e+000 2.220446e-016
    outer loop
      vertex   8.000000e+000 6.375000e+000 -1.487500e+001
      vertex   8.000000e+000 4.375000e+000 2.512500e+001
      vertex   8.000000e+000 6.375000e+000 2.512500e+001
    endloop
  endfacet
  facet normal 0.000000e+000 0.000000e+000 -1.000000e+000
    outer loop
      vertex   1.000000e+001 4.375000e+000 -1.487500e+001
      vertex   8.000000e+000 4.375000e+000 -1.487500e+001
      vertex   1.000000e+001 6.375000e+000 -1.487500e+001
    endloop
  endfacet
  facet normal -0.000000e+000 0.000000e+000 -1.000000e+000
    outer loop
      vertex   1.000000e+001 6.375000e+000 -1.487500e+001
      vertex   8.000000e+000 4.375000e+000 -1.487500e+001
      vertex   8.000000e+000 6.375000e+000 -1.487500e+001
    endloop
  endfacet
  facet normal -0.000000e+000 1.000000e+000 0.000000e+000
    outer loop
      vertex   8.000000e+000 6.375000e+000 -1.487500e+001
      vertex   8.000000e+000 6.375000e+000 2.512500e+001
      vertex   1.000000e+001 6.375000e+000 -1.487500e+001
    endloop
  endfacet
  facet normal 0.000000e+000 1.000000e+000 -0.000000e+000
    outer loop
      vertex   1.000000e+001 6.375000e+000 -1.487500e+001
      vertex   8.000000e+000 6.375000e+000 2.512500e+001
      vertex   1.000000e+001 6.375000e+000 2.512500e+001
    endloop
  endfacet
  facet normal -0.000000e+000 -1.000000e+000 0.000000e+000
    outer loop
      vertex   1.000000e+001 4.375000e+000 -1.487500e+001
      vertex   1.000000e+001 4.375000e+000 2.512500e+001
      vertex   8.000000e+000 4.375000e+000 -1.487500e+001
    endloop
  endfacet
  facet normal 0.000000e+000 -1.000000e+000 0.000000e+000
    outer loop
      vertex   8.000000e+000 4.375000e+000 -1.487500e+001
      vertex   1.000000e+001 4.375000e+000 2.512500e+001
      vertex   8.000000e+000 4.375000e+000 2.512500e+001
    endloop
  endfacet
endsolid
solid ascii
  facet normal 1.000000e+000 0.000000e+000 -2.220446e-016
    outer loop
      vertex   -8.000000e+000 4.375000e+000 2.512500e+001
      vertex   -8.000000e+000 4.375000e+000 -1.487500e+001
      vertex   -8.000000e+000 6.375000e+000 2.512500e+001
    endloop
  endfacet
  facet normal 1.000000e+000 0.000000e+000 -2.220446e-016
    outer loop
      vertex   -8.000000e+000 6.375000e+000 2.512500e+001
      vertex   -8.000000e+000 4.375000e+000 -1.487500e+001
      vertex   -8.000000e+000 6.375000e+000 -1.487500e+001
    endloop
  endfacet
  facet normal 0.000000e+000 -0.000000e+000 1.000000e+000
    outer loop
      vertex   -1.000000e+001 4.375000e+000 2.512500e+001
      vertex   -8.000000e+000 4.375000e+000 2.512500e+001
      vertex   -1.000000e+001 6.375000e+000 2.512500e+001
    endloop
  endfacet
  facet normal -0.000000e+000 0.000000e+000 1.000000e+000
    outer loop
      vertex   -1.000000e+001 6.375000e+000 2.512500e+001
      vertex   -8.000000e+000 4.375000e+000 2.512500e+001
      vertex   -8.000000e+000 6.375000e+000 2.512500e+001
    endloop
  endfacet
  facet normal -1.000000e+000 0.000000e+000 2.664535e-016
    outer loop
      vertex   -1.000000e+001 4.375000e+000 -1.487500e+001
      vertex   -1.000000e+001 4.375000e+000 2.512500e+001
      vertex   -1.000000e+001 6.375000e+000 -1.487500e+001
    endloop
  endfacet
  facet normal -1.000000e+000 0.000000e+000 2.664535e-016
    outer loop
      vertex   -1.000000e+001 6.375000e+000 -1.487500e+001
      vertex   -1.000000e+001 4.375000e+000 2.512500e+001
      vertex   -1.000000e+001 6.375000e+000 2.512500e+001
    endloop
  endfacet
  facet normal 0.000000e+000 0.000000e+000 -1.000000e+000
    outer loop
      vertex   -8.000000e+000 4.375000e+000 -1.487500e+001
      vertex   -1.000000e+001 4.375000e+000 -1.487500e+001
      vertex   -8.000000e+000 6.375000e+000 -1.487500e+001
    endloop
  endfacet
  facet normal -0.000000e+000 0.000000e+000 -1.000000e+000
    outer loop
      vertex   -8.000000e+000 6.375000e+000 -1.487500e+001
      vertex   -1.000000e+001 4.375000e+000 -1.487500e+001
      vertex   -1.000000e+001 6.375000e+000 -1.487500e+001
    endloop
  endfacet
  facet normal -0.000000e+000 1.000000e+000 0.000000e+000
    outer loop
      vertex   -1.000000e+001 6.375000e+000 -1.487500e+001
      vertex   -1.000000e+001 6.375000e+000 2.512500e+001
      vertex   -8.000000e+000 6.375000e+000 -1.487500e+001
    endloop
  endfacet
  facet normal 0.000000e+000 1.000000e+000 -0.000000e+000
    outer loop
      vertex   -8.000000e+000 6.375000e+000 -1.487500e+001
      vertex   -1.000000e+001 6.375000e+000 2.512500e+001
      vertex   -8.000000e+000 6.375000e+000 2.512500e+001
    endloop
  endfacet
  facet normal -0.000000e+000 -1.000000e+000 0.000000e+000
    outer loop
      vertex   -8.000000e+000 4.375000e+000 -1.487500e+001
      vertex   -8.000000e+000 4.375000e+000 2.512500e+001
      vertex   -1.000000e+001 4.375000e+000 -1.487500e+001
    endloop
  endfacet
  facet normal 0.000000e+000 -1.000000e+000 0.000000e+000
    outer loop
      vertex   -1.000000e+001 4.375000e+000 -1.487500e+001
      vertex   -8.000000e+000 4.375000e+000 2.512500e+001
      vertex   -1.000000e+001 4.375000e+000 2.512500e+001
    endloop
  endfacet
endsolid
