solid ascii
  facet normal 0.000000e+000 -0.000000e+000 -1.000000e+000
    outer loop
      vertex   -4.700000e+001 1.250000e+001 0.000000e+000
      vertex   -7.000000e+000 1.250000e+001 0.000000e+000
      vertex   -4.700000e+001 1.000000e+001 0.000000e+000
    endloop
  endfacet
  facet normal 0.000000e+000 0.000000e+000 -1.000000e+000
    outer loop
      vertex   -4.700000e+001 1.000000e+001 0.000000e+000
      vertex   -7.000000e+000 1.250000e+001 0.000000e+000
      vertex   -7.000000e+000 1.000000e+001 0.000000e+000
    endloop
  endfacet
  facet normal -0.000000e+000 -1.000000e+000 -0.000000e+000
    outer loop
      vertex   -7.000000e+000 1.000000e+001 2.500000e+000
      vertex   -4.700000e+001 1.000000e+001 2.500000e+000
      vertex   -7.000000e+000 1.000000e+001 0.000000e+000
    endloop
  endfacet
  facet normal -0.000000e+000 -1.000000e+000 -0.000000e+000
    outer loop
      vertex   -7.000000e+000 1.000000e+001 0.000000e+000
      vertex   -4.700000e+001 1.000000e+001 2.500000e+000
      vertex   -4.700000e+001 1.000000e+001 0.000000e+000
    endloop
  endfacet
  facet normal 1.000000e+000 0.000000e+000 -0.000000e+000
    outer loop
      vertex   -7.000000e+000 1.000000e+001 0.000000e+000
      vertex   -7.000000e+000 1.250000e+001 0.000000e+000
      vertex   -7.000000e+000 1.000000e+001 2.500000e+000
    endloop
  endfacet
  facet normal 1.000000e+000 -0.000000e+000 0.000000e+000
    outer loop
      vertex   -7.000000e+000 1.000000e+001 2.500000e+000
      vertex   -7.000000e+000 1.250000e+001 0.000000e+000
      vertex   -7.000000e+000 1.250000e+001 2.500000e+000
    endloop
  endfacet
  facet normal -1.000000e+000 0.000000e+000 0.000000e+000
    outer loop
      vertex   -4.700000e+001 1.250000e+001 0.000000e+000
      vertex   -4.700000e+001 1.000000e+001 0.000000e+000
      vertex   -4.700000e+001 1.250000e+001 2.500000e+000
    endloop
  endfacet
  facet normal -1.000000e+000 -0.000000e+000 0.000000e+000
    outer loop
      vertex   -4.700000e+001 1.250000e+001 2.500000e+000
      vertex   -4.700000e+001 1.000000e+001 0.000000e+000
      vertex   -4.700000e+001 1.000000e+001 2.500000e+000
    endloop
  endfacet
  facet normal 0.000000e+000 1.000000e+000 -0.000000e+000
    outer loop
      vertex   -7.000000e+000 1.250000e+001 0.000000e+000
      vertex   -4.700000e+001 1.250000e+001 0.000000e+000
      vertex   -7.000000e+000 1.250000e+001 2.500000e+000
    endloop
  endfacet
  facet normal 0.000000e+000 1.000000e+000 -0.000000e+000
    outer loop
      vertex   -7.000000e+000 1.250000e+001 2.500000e+000
      vertex   -4.700000e+001 1.250000e+001 0.000000e+000
      vertex   -4.700000e+001 1.250000e+001 2.500000e+000
    endloop
  endfacet
  facet normal 0.000000e+000 0.000000e+000 1.000000e+000
    outer loop
      vertex   -7.000000e+000 1.250000e+001 2.500000e+000
      vertex   -4.700000e+001 1.250000e+001 2.500000e+000
      vertex   -7.000000e+000 1.000000e+001 2.500000e+000
    endloop
  endfacet
  facet normal 0.000000e+000 0.000000e+000 1.000000e+000
    outer loop
      vertex   -7.000000e+000 1.000000e+001 2.500000e+000
      vertex   -4.700000e+001 1.250000e+001 2.500000e+000
      vertex   -4.700000e+001 1.000000e+001 2.500000e+000
    endloop
  endfacet
endsolid
solid ascii
  facet normal 1.000000e+000 0.000000e+000 -0.000000e+000
    outer loop
      vertex   -7.000000e+000 -1.250000e+001 0.000000e+000
      vertex   -7.000000e+000 -1.000000e+001 0.000000e+000
      vertex   -7.000000e+000 -1.250000e+001 2.500000e+000
    endloop
  endfacet
  facet normal 1.000000e+000 -0.000000e+000 0.000000e+000
    outer loop
      vertex   -7.000000e+000 -1.250000e+001 2.500000e+000
      vertex   -7.000000e+000 -1.000000e+001 0.000000e+000
      vertex   -7.000000e+000 -1.000000e+001 2.500000e+000
    endloop
  endfacet
  facet normal 0.000000e+000 -1.000000e+000 0.000000e+000
    outer loop
      vertex   -4.700000e+001 -1.250000e+001 0.000000e+000
      vertex   -7.000000e+000 -1.250000e+001 0.000000e+000
      vertex   -4.700000e+001 -1.250000e+001 2.500000e+000
    endloop
  endfacet
  facet normal 0.000000e+000 -1.000000e+000 0.000000e+000
    outer loop
      vertex   -4.700000e+001 -1.250000e+001 2.500000e+000
      vertex   -7.000000e+000 -1.250000e+001 0.000000e+000
      vertex   -7.000000e+000 -1.250000e+001 2.500000e+000
    endloop
  endfacet
  facet normal -1.000000e+000 0.000000e+000 0.000000e+000
    outer loop
      vertex   -4.700000e+001 -1.000000e+001 0.000000e+000
      vertex   -4.700000e+001 -1.250000e+001 0.000000e+000
      vertex   -4.700000e+001 -1.000000e+001 2.500000e+000
    endloop
  endfacet
  facet normal -1.000000e+000 -0.000000e+000 0.000000e+000
    outer loop
      vertex   -4.700000e+001 -1.000000e+001 2.500000e+000
      vertex   -4.700000e+001 -1.250000e+001 0.000000e+000
      vertex   -4.700000e+001 -1.250000e+001 2.500000e+000
    endloop
  endfacet
  facet normal 0.000000e+000 1.000000e+000 -0.000000e+000
    outer loop
      vertex   -7.000000e+000 -1.000000e+001 0.000000e+000
      vertex   -4.700000e+001 -1.000000e+001 0.000000e+000
      vertex   -7.000000e+000 -1.000000e+001 2.500000e+000
    endloop
  endfacet
  facet normal 0.000000e+000 1.000000e+000 -0.000000e+000
    outer loop
      vertex   -7.000000e+000 -1.000000e+001 2.500000e+000
      vertex   -4.700000e+001 -1.000000e+001 0.000000e+000
      vertex   -4.700000e+001 -1.000000e+001 2.500000e+000
    endloop
  endfacet
  facet normal 0.000000e+000 0.000000e+000 1.000000e+000
    outer loop
      vertex   -7.000000e+000 -1.000000e+001 2.500000e+000
      vertex   -4.700000e+001 -1.000000e+001 2.500000e+000
      vertex   -7.000000e+000 -1.250000e+001 2.500000e+000
    endloop
  endfacet
  facet normal 0.000000e+000 0.000000e+000 1.000000e+000
    outer loop
      vertex   -7.000000e+000 -1.250000e+001 2.500000e+000
      vertex   -4.700000e+001 -1.000000e+001 2.500000e+000
      vertex   -4.700000e+001 -1.250000e+001 2.500000e+000
    endloop
  endfacet
  facet normal 0.000000e+000 -0.000000e+000 -1.000000e+000
    outer loop
      vertex   -4.700000e+001 -1.000000e+001 0.000000e+000
      vertex   -7.000000e+000 -1.000000e+001 0.000000e+000
      vertex   -4.700000e+001 -1.250000e+001 0.000000e+000
    endloop
  endfacet
  facet normal 0.000000e+000 0.000000e+000 -1.000000e+000
    outer loop
      vertex   -4.700000e+001 -1.250000e+001 0.000000e+000
      vertex   -7.000000e+000 -1.000000e+001 0.000000e+000
      vertex   -7.000000e+000 -1.250000e+001 0.000000e+000
    endloop
  endfacet
endsolid
solid ascii
  facet normal 1.000000e+000 0.000000e+000 -0.000000e+000
    outer loop
      vertex   -7.000000e+000 -1.250000e+001 1.250000e+001
      vertex   -7.000000e+000 -1.000000e+001 1.250000e+001
      vertex   -7.000000e+000 -1.250000e+001 1.500000e+001
    endloop
  endfacet
  facet normal 1.000000e+000 -0.000000e+000 0.000000e+000
    outer loop
      vertex   -7.000000e+000 -1.250000e+001 1.500000e+001
      vertex   -7.000000e+000 -1.000000e+001 1.250000e+001
      vertex   -7.000000e+000 -1.000000e+001 1.500000e+001
    endloop
  endfacet
  facet normal 0.000000e+000 -1.000000e+000 0.000000e+000
    outer loop
      vertex   -4.700000e+001 -1.250000e+001 1.250000e+001
      vertex   -7.000000e+000 -1.250000e+001 1.250000e+001
      vertex   -4.700000e+001 -1.250000e+001 1.500000e+001
    endloop
  endfacet
  facet normal 0.000000e+000 -1.000000e+000 0.000000e+000
    outer loop
      vertex   -4.700000e+001 -1.250000e+001 1.500000e+001
      vertex   -7.000000e+000 -1.250000e+001 1.250000e+001
      vertex   -7.000000e+000 -1.250000e+001 1.500000e+001
    endloop
  endfacet
  facet normal -1.000000e+000 0.000000e+000 0.000000e+000
    outer loop
      vertex   -4.700000e+001 -1.000000e+001 1.250000e+001
      vertex   -4.700000e+001 -1.250000e+001 1.250000e+001
      vertex   -4.700000e+001 -1.000000e+001 1.500000e+001
    endloop
  endfacet
  facet normal -1.000000e+000 -0.000000e+000 0.000000e+000
    outer loop
      vertex   -4.700000e+001 -1.000000e+001 1.500000e+001
      vertex   -4.700000e+001 -1.250000e+001 1.250000e+001
      vertex   -4.700000e+001 -1.250000e+001 1.500000e+001
    endloop
  endfacet
  facet normal 0.000000e+000 1.000000e+000 -0.000000e+000
    outer loop
      vertex   -7.000000e+000 -1.000000e+001 1.250000e+001
      vertex   -4.700000e+001 -1.000000e+001 1.250000e+001
      vertex   -7.000000e+000 -1.000000e+001 1.500000e+001
    endloop
  endfacet
  facet normal 0.000000e+000 1.000000e+000 -0.000000e+000
    outer loop
      vertex   -7.000000e+000 -1.000000e+001 1.500000e+001
      vertex   -4.700000e+001 -1.000000e+001 1.250000e+001
      vertex   -4.700000e+001 -1.000000e+001 1.500000e+001
    endloop
  endfacet
  facet normal 0.000000e+000 0.000000e+000 1.000000e+000
    outer loop
      vertex   -7.000000e+000 -1.000000e+001 1.500000e+001
      vertex   -4.700000e+001 -1.000000e+001 1.500000e+001
      vertex   -7.000000e+000 -1.250000e+001 1.500000e+001
    endloop
  endfacet
  facet normal 0.000000e+000 0.000000e+000 1.000000e+000
    outer loop
      vertex   -7.000000e+000 -1.250000e+001 1.500000e+001
      vertex   -4.700000e+001 -1.000000e+001 1.500000e+001
      vertex   -4.700000e+001 -1.250000e+001 1.500000e+001
    endloop
  endfacet
  facet normal 0.000000e+000 -0.000000e+000 -1.000000e+000
    outer loop
      vertex   -4.700000e+001 -1.000000e+001 1.250000e+001
      vertex   -7.000000e+000 -1.000000e+001 1.250000e+001
      vertex   -4.700000e+001 -1.250000e+001 1.250000e+001
    endloop
  endfacet
  facet normal 0.000000e+000 0.000000e+000 -1.000000e+000
    outer loop
      vertex   -4.700000e+001 -1.250000e+001 1.250000e+001
      vertex   -7.000000e+000 -1.000000e+001 1.250000e+001
      vertex   -7.000000e+000 -1.250000e+001 1.250000e+001
    endloop
  endfacet
endsolid
solid ascii
  facet normal 1.000000e+000 0.000000e+000 -0.000000e+000
    outer loop
      vertex   -7.000000e+000 1.000000e+001 1.250000e+001
      vertex   -7.000000e+000 1.250000e+001 1.250000e+001
      vertex   -7.000000e+000 1.000000e+001 1.500000e+001
    endloop
  endfacet
  facet normal 1.000000e+000 -0.000000e+000 0.000000e+000
    outer loop
      vertex   -7.000000e+000 1.000000e+001 1.500000e+001
      vertex   -7.000000e+000 1.250000e+001 1.250000e+001
      vertex   -7.000000e+000 1.250000e+001 1.500000e+001
    endloop
  endfacet
  facet normal 0.000000e+000 -1.000000e+000 0.000000e+000
    outer loop
      vertex   -4.700000e+001 1.000000e+001 1.250000e+001
      vertex   -7.000000e+000 1.000000e+001 1.250000e+001
      vertex   -4.700000e+001 1.000000e+001 1.500000e+001
    endloop
  endfacet
  facet normal 0.000000e+000 -1.000000e+000 0.000000e+000
    outer loop
      vertex   -4.700000e+001 1.000000e+001 1.500000e+001
      vertex   -7.000000e+000 1.000000e+001 1.250000e+001
      vertex   -7.000000e+000 1.000000e+001 1.500000e+001
    endloop
  endfacet
  facet normal -1.000000e+000 0.000000e+000 0.000000e+000
    outer loop
      vertex   -4.700000e+001 1.250000e+001 1.250000e+001
      vertex   -4.700000e+001 1.000000e+001 1.250000e+001
      vertex   -4.700000e+001 1.250000e+001 1.500000e+001
    endloop
  endfacet
  facet normal -1.000000e+000 -0.000000e+000 0.000000e+000
    outer loop
      vertex   -4.700000e+001 1.250000e+001 1.500000e+001
      vertex   -4.700000e+001 1.000000e+001 1.250000e+001
      vertex   -4.700000e+001 1.000000e+001 1.500000e+001
    endloop
  endfacet
  facet normal 0.000000e+000 1.000000e+000 -0.000000e+000
    outer loop
      vertex   -7.000000e+000 1.250000e+001 1.250000e+001
      vertex   -4.700000e+001 1.250000e+001 1.250000e+001
      vertex   -7.000000e+000 1.250000e+001 1.500000e+001
    endloop
  endfacet
  facet normal 0.000000e+000 1.000000e+000 -0.000000e+000
    outer loop
      vertex   -7.000000e+000 1.250000e+001 1.500000e+001
      vertex   -4.700000e+001 1.250000e+001 1.250000e+001
      vertex   -4.700000e+001 1.250000e+001 1.500000e+001
    endloop
  endfacet
  facet normal 0.000000e+000 0.000000e+000 1.000000e+000
    outer loop
      vertex   -7.000000e+000 1.250000e+001 1.500000e+001
      vertex   -4.700000e+001 1.250000e+001 1.500000e+001
      vertex   -7.000000e+000 1.000000e+001 1.500000e+001
    endloop
  endfacet
  facet normal 0.000000e+000 0.000000e+000 1.000000e+000
    outer loop
      vertex   -7.000000e+000 1.000000e+001 1.500000e+001
      vertex   -4.700000e+001 1.250000e+001 1.500000e+001
      vertex   -4.700000e+001 1.000000e+001 1.500000e+001
    endloop
  endfacet
  facet normal 0.000000e+000 -0.000000e+000 -1.000000e+000
    outer loop
      vertex   -4.700000e+001 1.250000e+001 1.250000e+001
      vertex   -7.000000e+000 1.250000e+001 1.250000e+001
      vertex   -4.700000e+001 1.000000e+001 1.250000e+001
    endloop
  endfacet
  facet normal 0.000000e+000 0.000000e+000 -1.000000e+000
    outer loop
      vertex   -4.700000e+001 1.000000e+001 1.250000e+001
      vertex   -7.000000e+000 1.250000e+001 1.250000e+001
      vertex   -7.000000e+000 1.000000e+001 1.250000e+001
    endloop
  endfacet
endsolid
solid ascii
  facet normal 7.071068e-001 0.000000e+000 -7.071068e-001
    outer loop
      vertex   -7.201650e+000 -1.250000e+001 8.058262e-002
      vertex   -7.201650e+000 -1.000000e+001 8.058262e-002
      vertex   -1.305826e-001 -1.250000e+001 7.151650e+000
    endloop
  endfacet
  facet normal 7.071068e-001 0.000000e+000 -7.071068e-001
    outer loop
      vertex   -1.305826e-001 -1.250000e+001 7.151650e+000
      vertex   -7.201650e+000 -1.000000e+001 8.058262e-002
      vertex   -1.305826e-001 -1.000000e+001 7.151650e+000
    endloop
  endfacet
  facet normal 0.000000e+000 -1.000000e+000 0.000000e+000
    outer loop
      vertex   -8.969417e+000 -1.250000e+001 1.848350e+000
      vertex   -7.201650e+000 -1.250000e+001 8.058262e-002
      vertex   -1.898350e+000 -1.250000e+001 8.919417e+000
    endloop
  endfacet
  facet normal 0.000000e+000 -1.000000e+000 -0.000000e+000
    outer loop
      vertex   -1.898350e+000 -1.250000e+001 8.919417e+000
      vertex   -7.201650e+000 -1.250000e+001 8.058262e-002
      vertex   -1.305826e-001 -1.250000e+001 7.151650e+000
    endloop
  endfacet
  facet normal -7.071068e-001 0.000000e+000 7.071068e-001
    outer loop
      vertex   -8.969417e+000 -1.000000e+001 1.848350e+000
      vertex   -8.969417e+000 -1.250000e+001 1.848350e+000
      vertex   -1.898350e+000 -1.000000e+001 8.919417e+000
    endloop
  endfacet
  facet normal -7.071068e-001 0.000000e+000 7.071068e-001
    outer loop
      vertex   -1.898350e+000 -1.000000e+001 8.919417e+000
      vertex   -8.969417e+000 -1.250000e+001 1.848350e+000
      vertex   -1.898350e+000 -1.250000e+001 8.919417e+000
    endloop
  endfacet
  facet normal 0.000000e+000 1.000000e+000 -0.000000e+000
    outer loop
      vertex   -7.201650e+000 -1.000000e+001 8.058262e-002
      vertex   -8.969417e+000 -1.000000e+001 1.848350e+000
      vertex   -1.305826e-001 -1.000000e+001 7.151650e+000
    endloop
  endfacet
  facet normal 0.000000e+000 1.000000e+000 -0.000000e+000
    outer loop
      vertex   -1.305826e-001 -1.000000e+001 7.151650e+000
      vertex   -8.969417e+000 -1.000000e+001 1.848350e+000
      vertex   -1.898350e+000 -1.000000e+001 8.919417e+000
    endloop
  endfacet
  facet normal 7.071068e-001 0.000000e+000 7.071068e-001
    outer loop
      vertex   -1.305826e-001 -1.000000e+001 7.151650e+000
      vertex   -1.898350e+000 -1.000000e+001 8.919417e+000
      vertex   -1.305826e-001 -1.250000e+001 7.151650e+000
    endloop
  endfacet
  facet normal 7.071068e-001 0.000000e+000 7.071068e-001
    outer loop
      vertex   -1.305826e-001 -1.250000e+001 7.151650e+000
      vertex   -1.898350e+000 -1.000000e+001 8.919417e+000
      vertex   -1.898350e+000 -1.250000e+001 8.919417e+000
    endloop
  endfacet
  facet normal -7.071068e-001 0.000000e+000 -7.071068e-001
    outer loop
      vertex   -8.969417e+000 -1.000000e+001 1.848350e+000
      vertex   -7.201650e+000 -1.000000e+001 8.058262e-002
      vertex   -8.969417e+000 -1.250000e+001 1.848350e+000
    endloop
  endfacet
  facet normal -7.071068e-001 -0.000000e+000 -7.071068e-001
    outer loop
      vertex   -8.969417e+000 -1.250000e+001 1.848350e+000
      vertex   -7.201650e+000 -1.000000e+001 8.058262e-002
      vertex   -7.201650e+000 -1.250000e+001 8.058262e-002
    endloop
  endfacet
endsolid
solid ascii
  facet normal 7.071068e-001 0.000000e+000 -7.071068e-001
    outer loop
      vertex   -7.201650e+000 1.000000e+001 8.058262e-002
      vertex   -7.201650e+000 1.250000e+001 8.058262e-002
      vertex   -1.305826e-001 1.000000e+001 7.151650e+000
    endloop
  endfacet
  facet normal 7.071068e-001 0.000000e+000 -7.071068e-001
    outer loop
      vertex   -1.305826e-001 1.000000e+001 7.151650e+000
      vertex   -7.201650e+000 1.250000e+001 8.058262e-002
      vertex   -1.305826e-001 1.250000e+001 7.151650e+000
    endloop
  endfacet
  facet normal 0.000000e+000 -1.000000e+000 0.000000e+000
    outer loop
      vertex   -8.969417e+000 1.000000e+001 1.848350e+000
      vertex   -7.201650e+000 1.000000e+001 8.058262e-002
      vertex   -1.898350e+000 1.000000e+001 8.919417e+000
    endloop
  endfacet
  facet normal 0.000000e+000 -1.000000e+000 -0.000000e+000
    outer loop
      vertex   -1.898350e+000 1.000000e+001 8.919417e+000
      vertex   -7.201650e+000 1.000000e+001 8.058262e-002
      vertex   -1.305826e-001 1.000000e+001 7.151650e+000
    endloop
  endfacet
  facet normal -7.071068e-001 0.000000e+000 7.071068e-001
    outer loop
      vertex   -8.969417e+000 1.250000e+001 1.848350e+000
      vertex   -8.969417e+000 1.000000e+001 1.848350e+000
      vertex   -1.898350e+000 1.250000e+001 8.919417e+000
    endloop
  endfacet
  facet normal -7.071068e-001 0.000000e+000 7.071068e-001
    outer loop
      vertex   -1.898350e+000 1.250000e+001 8.919417e+000
      vertex   -8.969417e+000 1.000000e+001 1.848350e+000
      vertex   -1.898350e+000 1.000000e+001 8.919417e+000
    endloop
  endfacet
  facet normal 0.000000e+000 1.000000e+000 -0.000000e+000
    outer loop
      vertex   -7.201650e+000 1.250000e+001 8.058262e-002
      vertex   -8.969417e+000 1.250000e+001 1.848350e+000
      vertex   -1.305826e-001 1.250000e+001 7.151650e+000
    endloop
  endfacet
  facet normal 0.000000e+000 1.000000e+000 -0.000000e+000
    outer loop
      vertex   -1.305826e-001 1.250000e+001 7.151650e+000
      vertex   -8.969417e+000 1.250000e+001 1.848350e+000
      vertex   -1.898350e+000 1.250000e+001 8.919417e+000
    endloop
  endfacet
  facet normal 7.071068e-001 0.000000e+000 7.071068e-001
    outer loop
      vertex   -1.305826e-001 1.250000e+001 7.151650e+000
      vertex   -1.898350e+000 1.250000e+001 8.919417e+000
      vertex   -1.305826e-001 1.000000e+001 7.151650e+000
    endloop
  endfacet
  facet normal 7.071068e-001 0.000000e+000 7.071068e-001
    outer loop
      vertex   -1.305826e-001 1.000000e+001 7.151650e+000
      vertex   -1.898350e+000 1.250000e+001 8.919417e+000
      vertex   -1.898350e+000 1.000000e+001 8.919417e+000
    endloop
  endfacet
  facet normal -7.071068e-001 0.000000e+000 -7.071068e-001
    outer loop
      vertex   -8.969417e+000 1.250000e+001 1.848350e+000
      vertex   -7.201650e+000 1.250000e+001 8.058262e-002
      vertex   -8.969417e+000 1.000000e+001 1.848350e+000
    endloop
  endfacet
  facet normal -7.071068e-001 -0.000000e+000 -7.071068e-001
    outer loop
      vertex   -8.969417e+000 1.000000e+001 1.848350e+000
      vertex   -7.201650e+000 1.250000e+001 8.058262e-002
      vertex   -7.201650e+000 1.000000e+001 8.058262e-002
    endloop
  endfacet
endsolid
solid ascii
  facet normal 1.000000e+000 0.000000e+000 -0.000000e+000
    outer loop
      vertex   -4.440892e-015 -1.250000e+001 7.250000e+000
      vertex   -4.440892e-015 -1.000000e+001 7.250000e+000
      vertex   -4.440892e-015 -1.250000e+001 1.725000e+001
    endloop
  endfacet
  facet normal 1.000000e+000 -0.000000e+000 0.000000e+000
    outer loop
      vertex   -4.440892e-015 -1.250000e+001 1.725000e+001
      vertex   -4.440892e-015 -1.000000e+001 7.250000e+000
      vertex   -4.440892e-015 -1.000000e+001 1.725000e+001
    endloop
  endfacet
  facet normal 0.000000e+000 -1.000000e+000 0.000000e+000
    outer loop
      vertex   -2.500000e+000 -1.250000e+001 7.250000e+000
      vertex   -4.440892e-015 -1.250000e+001 7.250000e+000
      vertex   -2.500000e+000 -1.250000e+001 1.725000e+001
    endloop
  endfacet
  facet normal 0.000000e+000 -1.000000e+000 0.000000e+000
    outer loop
      vertex   -2.500000e+000 -1.250000e+001 1.725000e+001
      vertex   -4.440892e-015 -1.250000e+001 7.250000e+000
      vertex   -4.440892e-015 -1.250000e+001 1.725000e+001
    endloop
  endfacet
  facet normal -1.000000e+000 0.000000e+000 0.000000e+000
    outer loop
      vertex   -2.500000e+000 -1.000000e+001 7.250000e+000
      vertex   -2.500000e+000 -1.250000e+001 7.250000e+000
      vertex   -2.500000e+000 -1.000000e+001 1.725000e+001
    endloop
  endfacet
  facet normal -1.000000e+000 -0.000000e+000 0.000000e+000
    outer loop
      vertex   -2.500000e+000 -1.000000e+001 1.725000e+001
      vertex   -2.500000e+000 -1.250000e+001 7.250000e+000
      vertex   -2.500000e+000 -1.250000e+001 1.725000e+001
    endloop
  endfacet
  facet normal 0.000000e+000 1.000000e+000 -0.000000e+000
    outer loop
      vertex   -4.440892e-015 -1.000000e+001 7.250000e+000
      vertex   -2.500000e+000 -1.000000e+001 7.250000e+000
      vertex   -4.440892e-015 -1.000000e+001 1.725000e+001
    endloop
  endfacet
  facet normal 0.000000e+000 1.000000e+000 -0.000000e+000
    outer loop
      vertex   -4.440892e-015 -1.000000e+001 1.725000e+001
      vertex   -2.500000e+000 -1.000000e+001 7.250000e+000
      vertex   -2.500000e+000 -1.000000e+001 1.725000e+001
    endloop
  endfacet
  facet normal 0.000000e+000 0.000000e+000 1.000000e+000
    outer loop
      vertex   -4.440892e-015 -1.000000e+001 1.725000e+001
      vertex   -2.500000e+000 -1.000000e+001 1.725000e+001
      vertex   -4.440892e-015 -1.250000e+001 1.725000e+001
    endloop
  endfacet
  facet normal 0.000000e+000 0.000000e+000 1.000000e+000
    outer loop
      vertex   -4.440892e-015 -1.250000e+001 1.725000e+001
      vertex   -2.500000e+000 -1.000000e+001 1.725000e+001
      vertex   -2.500000e+000 -1.250000e+001 1.725000e+001
    endloop
  endfacet
  facet normal 0.000000e+000 -0.000000e+000 -1.000000e+000
    outer loop
      vertex   -2.500000e+000 -1.000000e+001 7.250000e+000
      vertex   -4.440892e-015 -1.000000e+001 7.250000e+000
      vertex   -2.500000e+000 -1.250000e+001 7.250000e+000
    endloop
  endfacet
  facet normal 0.000000e+000 0.000000e+000 -1.000000e+000
    outer loop
      vertex   -2.500000e+000 -1.250000e+001 7.250000e+000
      vertex   -4.440892e-015 -1.000000e+001 7.250000e+000
      vertex   -4.440892e-015 -1.250000e+001 7.250000e+000
    endloop
  endfacet
endsolid
solid ascii
  facet normal 1.000000e+000 0.000000e+000 -0.000000e+000
    outer loop
      vertex   -4.440892e-015 1.000000e+001 7.250000e+000
      vertex   -4.440892e-015 1.250000e+001 7.250000e+000
      vertex   -4.440892e-015 1.000000e+001 1.725000e+001
    endloop
  endfacet
  facet normal 1.000000e+000 -0.000000e+000 0.000000e+000
    outer loop
      vertex   -4.440892e-015 1.000000e+001 1.725000e+001
      vertex   -4.440892e-015 1.250000e+001 7.250000e+000
      vertex   -4.440892e-015 1.250000e+001 1.725000e+001
    endloop
  endfacet
  facet normal 0.000000e+000 -1.000000e+000 0.000000e+000
    outer loop
      vertex   -2.500000e+000 1.000000e+001 7.250000e+000
      vertex   -4.440892e-015 1.000000e+001 7.250000e+000
      vertex   -2.500000e+000 1.000000e+001 1.725000e+001
    endloop
  endfacet
  facet normal 0.000000e+000 -1.000000e+000 0.000000e+000
    outer loop
      vertex   -2.500000e+000 1.000000e+001 1.725000e+001
      vertex   -4.440892e-015 1.000000e+001 7.250000e+000
      vertex   -4.440892e-015 1.000000e+001 1.725000e+001
    endloop
  endfacet
  facet normal -1.000000e+000 0.000000e+000 0.000000e+000
    outer loop
      vertex   -2.500000e+000 1.250000e+001 7.250000e+000
      vertex   -2.500000e+000 1.000000e+001 7.250000e+000
      vertex   -2.500000e+000 1.250000e+001 1.725000e+001
    endloop
  endfacet
  facet normal -1.000000e+000 -0.000000e+000 0.000000e+000
    outer loop
      vertex   -2.500000e+000 1.250000e+001 1.725000e+001
      vertex   -2.500000e+000 1.000000e+001 7.250000e+000
      vertex   -2.500000e+000 1.000000e+001 1.725000e+001
    endloop
  endfacet
  facet normal 0.000000e+000 1.000000e+000 -0.000000e+000
    outer loop
      vertex   -4.440892e-015 1.250000e+001 7.250000e+000
      vertex   -2.500000e+000 1.250000e+001 7.250000e+000
      vertex   -4.440892e-015 1.250000e+001 1.725000e+001
    endloop
  endfacet
  facet normal 0.000000e+000 1.000000e+000 -0.000000e+000
    outer loop
      vertex   -4.440892e-015 1.250000e+001 1.725000e+001
      vertex   -2.500000e+000 1.250000e+001 7.250000e+000
      vertex   -2.500000e+000 1.250000e+001 1.725000e+001
    endloop
  endfacet
  facet normal 0.000000e+000 0.000000e+000 1.000000e+000
    outer loop
      vertex   -4.440892e-015 1.250000e+001 1.725000e+001
      vertex   -2.500000e+000 1.250000e+001 1.725000e+001
      vertex   -4.440892e-015 1.000000e+001 1.725000e+001
    endloop
  endfacet
  facet normal 0.000000e+000 0.000000e+000 1.000000e+000
    outer loop
      vertex   -4.440892e-015 1.000000e+001 1.725000e+001
      vertex   -2.500000e+000 1.250000e+001 1.725000e+001
      vertex   -2.500000e+000 1.000000e+001 1.725000e+001
    endloop
  endfacet
  facet normal 0.000000e+000 -0.000000e+000 -1.000000e+000
    outer loop
      vertex   -2.500000e+000 1.250000e+001 7.250000e+000
      vertex   -4.440892e-015 1.250000e+001 7.250000e+000
      vertex   -2.500000e+000 1.000000e+001 7.250000e+000
    endloop
  endfacet
  facet normal 0.000000e+000 0.000000e+000 -1.000000e+000
    outer loop
      vertex   -2.500000e+000 1.000000e+001 7.250000e+000
      vertex   -4.440892e-015 1.250000e+001 7.250000e+000
      vertex   -4.440892e-015 1.000000e+001 7.250000e+000
    endloop
  endfacet
endsolid
solid ascii
  facet normal 1.000000e+000 0.000000e+000 -0.000000e+000
    outer loop
      vertex   -4.000000e+001 -1.212500e+001 2.500000e+000
      vertex   -4.000000e+001 -1.012500e+001 2.500000e+000
      vertex   -4.000000e+001 -1.212500e+001 1.250000e+001
    endloop
  endfacet
  facet normal 1.000000e+000 -0.000000e+000 0.000000e+000
    outer loop
      vertex   -4.000000e+001 -1.212500e+001 1.250000e+001
      vertex   -4.000000e+001 -1.012500e+001 2.500000e+000
      vertex   -4.000000e+001 -1.012500e+001 1.250000e+001
    endloop
  endfacet
  facet normal 0.000000e+000 -1.000000e+000 0.000000e+000
    outer loop
      vertex   -4.200000e+001 -1.212500e+001 2.500000e+000
      vertex   -4.000000e+001 -1.212500e+001 2.500000e+000
      vertex   -4.200000e+001 -1.212500e+001 1.250000e+001
    endloop
  endfacet
  facet normal 0.000000e+000 -1.000000e+000 0.000000e+000
    outer loop
      vertex   -4.200000e+001 -1.212500e+001 1.250000e+001
      vertex   -4.000000e+001 -1.212500e+001 2.500000e+000
      vertex   -4.000000e+001 -1.212500e+001 1.250000e+001
    endloop
  endfacet
  facet normal -1.000000e+000 0.000000e+000 0.000000e+000
    outer loop
      vertex   -4.200000e+001 -1.012500e+001 2.500000e+000
      vertex   -4.200000e+001 -1.212500e+001 2.500000e+000
      vertex   -4.200000e+001 -1.012500e+001 1.250000e+001
    endloop
  endfacet
  facet normal -1.000000e+000 -0.000000e+000 0.000000e+000
    outer loop
      vertex   -4.200000e+001 -1.012500e+001 1.250000e+001
      vertex   -4.200000e+001 -1.212500e+001 2.500000e+000
      vertex   -4.200000e+001 -1.212500e+001 1.250000e+001
    endloop
  endfacet
  facet normal 0.000000e+000 1.000000e+000 -0.000000e+000
    outer loop
      vertex   -4.000000e+001 -1.012500e+001 2.500000e+000
      vertex   -4.200000e+001 -1.012500e+001 2.500000e+000
      vertex   -4.000000e+001 -1.012500e+001 1.250000e+001
    endloop
  endfacet
  facet normal 0.000000e+000 1.000000e+000 -0.000000e+000
    outer loop
      vertex   -4.000000e+001 -1.012500e+001 1.250000e+001
      vertex   -4.200000e+001 -1.012500e+001 2.500000e+000
      vertex   -4.200000e+001 -1.012500e+001 1.250000e+001
    endloop
  endfacet
  facet normal 0.000000e+000 0.000000e+000 1.000000e+000
    outer loop
      vertex   -4.000000e+001 -1.012500e+001 1.250000e+001
      vertex   -4.200000e+001 -1.012500e+001 1.250000e+001
      vertex   -4.000000e+001 -1.212500e+001 1.250000e+001
    endloop
  endfacet
  facet normal 0.000000e+000 0.000000e+000 1.000000e+000
    outer loop
      vertex   -4.000000e+001 -1.212500e+001 1.250000e+001
      vertex   -4.200000e+001 -1.012500e+001 1.250000e+001
      vertex   -4.200000e+001 -1.212500e+001 1.250000e+001
    endloop
  endfacet
  facet normal 0.000000e+000 -0.000000e+000 -1.000000e+000
    outer loop
      vertex   -4.200000e+001 -1.012500e+001 2.500000e+000
      vertex   -4.000000e+001 -1.012500e+001 2.500000e+000
      vertex   -4.200000e+001 -1.212500e+001 2.500000e+000
    endloop
  endfacet
  facet normal 0.000000e+000 0.000000e+000 -1.000000e+000
    outer loop
      vertex   -4.200000e+001 -1.212500e+001 2.500000e+000
      vertex   -4.000000e+001 -1.012500e+001 2.500000e+000
      vertex   -4.000000e+001 -1.212500e+001 2.500000e+000
    endloop
  endfacet
endsolid
solid ascii
  facet normal 1.000000e+000 0.000000e+000 -0.000000e+000
    outer loop
      vertex   -1.125000e+001 -1.212500e+001 2.500000e+000
      vertex   -1.125000e+001 -1.012500e+001 2.500000e+000
      vertex   -1.125000e+001 -1.212500e+001 1.250000e+001
    endloop
  endfacet
  facet normal 1.000000e+000 -0.000000e+000 0.000000e+000
    outer loop
      vertex   -1.125000e+001 -1.212500e+001 1.250000e+001
      vertex   -1.125000e+001 -1.012500e+001 2.500000e+000
      vertex   -1.125000e+001 -1.012500e+001 1.250000e+001
    endloop
  endfacet
  facet normal 0.000000e+000 -1.000000e+000 0.000000e+000
    outer loop
      vertex   -1.325000e+001 -1.212500e+001 2.500000e+000
      vertex   -1.125000e+001 -1.212500e+001 2.500000e+000
      vertex   -1.325000e+001 -1.212500e+001 1.250000e+001
    endloop
  endfacet
  facet normal 0.000000e+000 -1.000000e+000 0.000000e+000
    outer loop
      vertex   -1.325000e+001 -1.212500e+001 1.250000e+001
      vertex   -1.125000e+001 -1.212500e+001 2.500000e+000
      vertex   -1.125000e+001 -1.212500e+001 1.250000e+001
    endloop
  endfacet
  facet normal -1.000000e+000 0.000000e+000 0.000000e+000
    outer loop
      vertex   -1.325000e+001 -1.012500e+001 2.500000e+000
      vertex   -1.325000e+001 -1.212500e+001 2.500000e+000
      vertex   -1.325000e+001 -1.012500e+001 1.250000e+001
    endloop
  endfacet
  facet normal -1.000000e+000 -0.000000e+000 0.000000e+000
    outer loop
      vertex   -1.325000e+001 -1.012500e+001 1.250000e+001
      vertex   -1.325000e+001 -1.212500e+001 2.500000e+000
      vertex   -1.325000e+001 -1.212500e+001 1.250000e+001
    endloop
  endfacet
  facet normal 0.000000e+000 1.000000e+000 -0.000000e+000
    outer loop
      vertex   -1.125000e+001 -1.012500e+001 2.500000e+000
      vertex   -1.325000e+001 -1.012500e+001 2.500000e+000
      vertex   -1.125000e+001 -1.012500e+001 1.250000e+001
    endloop
  endfacet
  facet normal 0.000000e+000 1.000000e+000 -0.000000e+000
    outer loop
      vertex   -1.125000e+001 -1.012500e+001 1.250000e+001
      vertex   -1.325000e+001 -1.012500e+001 2.500000e+000
      vertex   -1.325000e+001 -1.012500e+001 1.250000e+001
    endloop
  endfacet
  facet normal 0.000000e+000 0.000000e+000 1.000000e+000
    outer loop
      vertex   -1.125000e+001 -1.012500e+001 1.250000e+001
      vertex   -1.325000e+001 -1.012500e+001 1.250000e+001
      vertex   -1.125000e+001 -1.212500e+001 1.250000e+001
    endloop
  endfacet
  facet normal 0.000000e+000 0.000000e+000 1.000000e+000
    outer loop
      vertex   -1.125000e+001 -1.212500e+001 1.250000e+001
      vertex   -1.325000e+001 -1.012500e+001 1.250000e+001
      vertex   -1.325000e+001 -1.212500e+001 1.250000e+001
    endloop
  endfacet
  facet normal 0.000000e+000 -0.000000e+000 -1.000000e+000
    outer loop
      vertex   -1.325000e+001 -1.012500e+001 2.500000e+000
      vertex   -1.125000e+001 -1.012500e+001 2.500000e+000
      vertex   -1.325000e+001 -1.212500e+001 2.500000e+000
    endloop
  endfacet
  facet normal 0.000000e+000 0.000000e+000 -1.000000e+000
    outer loop
      vertex   -1.325000e+001 -1.212500e+001 2.500000e+000
      vertex   -1.125000e+001 -1.012500e+001 2.500000e+000
      vertex   -1.125000e+001 -1.212500e+001 2.500000e+000
    endloop
  endfacet
endsolid
solid ascii
  facet normal 1.000000e+000 0.000000e+000 -0.000000e+000
    outer loop
      vertex   -4.000000e+001 1.012500e+001 2.500000e+000
      vertex   -4.000000e+001 1.212500e+001 2.500000e+000
      vertex   -4.000000e+001 1.012500e+001 1.250000e+001
    endloop
  endfacet
  facet normal 1.000000e+000 -0.000000e+000 0.000000e+000
    outer loop
      vertex   -4.000000e+001 1.012500e+001 1.250000e+001
      vertex   -4.000000e+001 1.212500e+001 2.500000e+000
      vertex   -4.000000e+001 1.212500e+001 1.250000e+001
    endloop
  endfacet
  facet normal 0.000000e+000 -1.000000e+000 0.000000e+000
    outer loop
      vertex   -4.200000e+001 1.012500e+001 2.500000e+000
      vertex   -4.000000e+001 1.012500e+001 2.500000e+000
      vertex   -4.200000e+001 1.012500e+001 1.250000e+001
    endloop
  endfacet
  facet normal 0.000000e+000 -1.000000e+000 0.000000e+000
    outer loop
      vertex   -4.200000e+001 1.012500e+001 1.250000e+001
      vertex   -4.000000e+001 1.012500e+001 2.500000e+000
      vertex   -4.000000e+001 1.012500e+001 1.250000e+001
    endloop
  endfacet
  facet normal -1.000000e+000 0.000000e+000 0.000000e+000
    outer loop
      vertex   -4.200000e+001 1.212500e+001 2.500000e+000
      vertex   -4.200000e+001 1.012500e+001 2.500000e+000
      vertex   -4.200000e+001 1.212500e+001 1.250000e+001
    endloop
  endfacet
  facet normal -1.000000e+000 -0.000000e+000 0.000000e+000
    outer loop
      vertex   -4.200000e+001 1.212500e+001 1.250000e+001
      vertex   -4.200000e+001 1.012500e+001 2.500000e+000
      vertex   -4.200000e+001 1.012500e+001 1.250000e+001
    endloop
  endfacet
  facet normal 0.000000e+000 1.000000e+000 -0.000000e+000
    outer loop
      vertex   -4.000000e+001 1.212500e+001 2.500000e+000
      vertex   -4.200000e+001 1.212500e+001 2.500000e+000
      vertex   -4.000000e+001 1.212500e+001 1.250000e+001
    endloop
  endfacet
  facet normal 0.000000e+000 1.000000e+000 -0.000000e+000
    outer loop
      vertex   -4.000000e+001 1.212500e+001 1.250000e+001
      vertex   -4.200000e+001 1.212500e+001 2.500000e+000
      vertex   -4.200000e+001 1.212500e+001 1.250000e+001
    endloop
  endfacet
  facet normal 0.000000e+000 0.000000e+000 1.000000e+000
    outer loop
      vertex   -4.000000e+001 1.212500e+001 1.250000e+001
      vertex   -4.200000e+001 1.212500e+001 1.250000e+001
      vertex   -4.000000e+001 1.012500e+001 1.250000e+001
    endloop
  endfacet
  facet normal 0.000000e+000 0.000000e+000 1.000000e+000
    outer loop
      vertex   -4.000000e+001 1.012500e+001 1.250000e+001
      vertex   -4.200000e+001 1.212500e+001 1.250000e+001
      vertex   -4.200000e+001 1.012500e+001 1.250000e+001
    endloop
  endfacet
  facet normal 0.000000e+000 -0.000000e+000 -1.000000e+000
    outer loop
      vertex   -4.200000e+001 1.212500e+001 2.500000e+000
      vertex   -4.000000e+001 1.212500e+001 2.500000e+000
      vertex   -4.200000e+001 1.012500e+001 2.500000e+000
    endloop
  endfacet
  facet normal 0.000000e+000 0.000000e+000 -1.000000e+000
    outer loop
      vertex   -4.200000e+001 1.012500e+001 2.500000e+000
      vertex   -4.000000e+001 1.212500e+001 2.500000e+000
      vertex   -4.000000e+001 1.012500e+001 2.500000e+000
    endloop
  endfacet
endsolid
solid ascii
  facet normal 1.000000e+000 0.000000e+000 -0.000000e+000
    outer loop
      vertex   -1.125000e+001 1.012500e+001 2.500000e+000
      vertex   -1.125000e+001 1.212500e+001 2.500000e+000
      vertex   -1.125000e+001 1.012500e+001 1.250000e+001
    endloop
  endfacet
  facet normal 1.000000e+000 -0.000000e+000 0.000000e+000
    outer loop
      vertex   -1.125000e+001 1.012500e+001 1.250000e+001
      vertex   -1.125000e+001 1.212500e+001 2.500000e+000
      vertex   -1.125000e+001 1.212500e+001 1.250000e+001
    endloop
  endfacet
  facet normal 0.000000e+000 -1.000000e+000 0.000000e+000
    outer loop
      vertex   -1.325000e+001 1.012500e+001 2.500000e+000
      vertex   -1.125000e+001 1.012500e+001 2.500000e+000
      vertex   -1.325000e+001 1.012500e+001 1.250000e+001
    endloop
  endfacet
  facet normal 0.000000e+000 -1.000000e+000 0.000000e+000
    outer loop
      vertex   -1.325000e+001 1.012500e+001 1.250000e+001
      vertex   -1.125000e+001 1.012500e+001 2.500000e+000
      vertex   -1.125000e+001 1.012500e+001 1.250000e+001
    endloop
  endfacet
  facet normal -1.000000e+000 0.000000e+000 0.000000e+000
    outer loop
      vertex   -1.325000e+001 1.212500e+001 2.500000e+000
      vertex   -1.325000e+001 1.012500e+001 2.500000e+000
      vertex   -1.325000e+001 1.212500e+001 1.250000e+001
    endloop
  endfacet
  facet normal -1.000000e+000 -0.000000e+000 0.000000e+000
    outer loop
      vertex   -1.325000e+001 1.212500e+001 1.250000e+001
      vertex   -1.325000e+001 1.012500e+001 2.500000e+000
      vertex   -1.325000e+001 1.012500e+001 1.250000e+001
    endloop
  endfacet
  facet normal 0.000000e+000 1.000000e+000 -0.000000e+000
    outer loop
      vertex   -1.125000e+001 1.212500e+001 2.500000e+000
      vertex   -1.325000e+001 1.212500e+001 2.500000e+000
      vertex   -1.125000e+001 1.212500e+001 1.250000e+001
    endloop
  endfacet
  facet normal 0.000000e+000 1.000000e+000 -0.000000e+000
    outer loop
      vertex   -1.125000e+001 1.212500e+001 1.250000e+001
      vertex   -1.325000e+001 1.212500e+001 2.500000e+000
      vertex   -1.325000e+001 1.212500e+001 1.250000e+001
    endloop
  endfacet
  facet normal 0.000000e+000 0.000000e+000 1.000000e+000
    outer loop
      vertex   -1.125000e+001 1.212500e+001 1.250000e+001
      vertex   -1.325000e+001 1.212500e+001 1.250000e+001
      vertex   -1.125000e+001 1.012500e+001 1.250000e+001
    endloop
  endfacet
  facet normal 0.000000e+000 0.000000e+000 1.000000e+000
    outer loop
      vertex   -1.125000e+001 1.012500e+001 1.250000e+001
      vertex   -1.325000e+001 1.212500e+001 1.250000e+001
      vertex   -1.325000e+001 1.012500e+001 1.250000e+001
    endloop
  endfacet
  facet normal 0.000000e+000 -0.000000e+000 -1.000000e+000
    outer loop
      vertex   -1.325000e+001 1.212500e+001 2.500000e+000
      vertex   -1.125000e+001 1.212500e+001 2.500000e+000
      vertex   -1.325000e+001 1.012500e+001 2.500000e+000
    endloop
  endfacet
  facet normal 0.000000e+000 0.000000e+000 -1.000000e+000
    outer loop
      vertex   -1.325000e+001 1.012500e+001 2.500000e+000
      vertex   -1.125000e+001 1.212500e+001 2.500000e+000
      vertex   -1.125000e+001 1.012500e+001 2.500000e+000
    endloop
  endfacet
endsolid
solid ascii
  facet normal 0.000000e+000 1.000000e+000 -0.000000e+000
    outer loop
      vertex   -3.987500e+001 1.000000e+001 1.051250e+001
      vertex   -4.187500e+001 1.000000e+001 1.051250e+001
      vertex   -3.987500e+001 1.000000e+001 1.301250e+001
    endloop
  endfacet
  facet normal 0.000000e+000 1.000000e+000 -0.000000e+000
    outer loop
      vertex   -3.987500e+001 1.000000e+001 1.301250e+001
      vertex   -4.187500e+001 1.000000e+001 1.051250e+001
      vertex   -4.187500e+001 1.000000e+001 1.301250e+001
    endloop
  endfacet
  facet normal 1.000000e+000 0.000000e+000 -0.000000e+000
    outer loop
      vertex   -3.987500e+001 -1.000000e+001 1.051250e+001
      vertex   -3.987500e+001 1.000000e+001 1.051250e+001
      vertex   -3.987500e+001 -1.000000e+001 1.301250e+001
    endloop
  endfacet
  facet normal 1.000000e+000 -0.000000e+000 0.000000e+000
    outer loop
      vertex   -3.987500e+001 -1.000000e+001 1.301250e+001
      vertex   -3.987500e+001 1.000000e+001 1.051250e+001
      vertex   -3.987500e+001 1.000000e+001 1.301250e+001
    endloop
  endfacet
  facet normal 0.000000e+000 -1.000000e+000 0.000000e+000
    outer loop
      vertex   -4.187500e+001 -1.000000e+001 1.051250e+001
      vertex   -3.987500e+001 -1.000000e+001 1.051250e+001
      vertex   -4.187500e+001 -1.000000e+001 1.301250e+001
    endloop
  endfacet
  facet normal 0.000000e+000 -1.000000e+000 0.000000e+000
    outer loop
      vertex   -4.187500e+001 -1.000000e+001 1.301250e+001
      vertex   -3.987500e+001 -1.000000e+001 1.051250e+001
      vertex   -3.987500e+001 -1.000000e+001 1.301250e+001
    endloop
  endfacet
  facet normal -1.000000e+000 0.000000e+000 0.000000e+000
    outer loop
      vertex   -4.187500e+001 1.000000e+001 1.051250e+001
      vertex   -4.187500e+001 -1.000000e+001 1.051250e+001
      vertex   -4.187500e+001 1.000000e+001 1.301250e+001
    endloop
  endfacet
  facet normal -1.000000e+000 -0.000000e+000 0.000000e+000
    outer loop
      vertex   -4.187500e+001 1.000000e+001 1.301250e+001
      vertex   -4.187500e+001 -1.000000e+001 1.051250e+001
      vertex   -4.187500e+001 -1.000000e+001 1.301250e+001
    endloop
  endfacet
  facet normal 0.000000e+000 -0.000000e+000 1.000000e+000
    outer loop
      vertex   -4.187500e+001 -1.000000e+001 1.301250e+001
      vertex   -3.987500e+001 -1.000000e+001 1.301250e+001
      vertex   -4.187500e+001 1.000000e+001 1.301250e+001
    endloop
  endfacet
  facet normal -0.000000e+000 0.000000e+000 1.000000e+000
    outer loop
      vertex   -4.187500e+001 1.000000e+001 1.301250e+001
      vertex   -3.987500e+001 -1.000000e+001 1.301250e+001
      vertex   -3.987500e+001 1.000000e+001 1.301250e+001
    endloop
  endfacet
  facet normal 0.000000e+000 -0.000000e+000 -1.000000e+000
    outer loop
      vertex   -4.187500e+001 1.000000e+001 1.051250e+001
      vertex   -3.987500e+001 1.000000e+001 1.051250e+001
      vertex   -4.187500e+001 -1.000000e+001 1.051250e+001
    endloop
  endfacet
  facet normal 0.000000e+000 0.000000e+000 -1.000000e+000
    outer loop
      vertex   -4.187500e+001 -1.000000e+001 1.051250e+001
      vertex   -3.987500e+001 1.000000e+001 1.051250e+001
      vertex   -3.987500e+001 -1.000000e+001 1.051250e+001
    endloop
  endfacet
endsolid
solid ascii
  facet normal 0.000000e+000 1.000000e+000 -0.000000e+000
    outer loop
      vertex   -1.087500e+001 1.000000e+001 1.051250e+001
      vertex   -1.287500e+001 1.000000e+001 1.051250e+001
      vertex   -1.087500e+001 1.000000e+001 1.301250e+001
    endloop
  endfacet
  facet normal 0.000000e+000 1.000000e+000 -0.000000e+000
    outer loop
      vertex   -1.087500e+001 1.000000e+001 1.301250e+001
      vertex   -1.287500e+001 1.000000e+001 1.051250e+001
      vertex   -1.287500e+001 1.000000e+001 1.301250e+001
    endloop
  endfacet
  facet normal 1.000000e+000 0.000000e+000 -0.000000e+000
    outer loop
      vertex   -1.087500e+001 -1.000000e+001 1.051250e+001
      vertex   -1.087500e+001 1.000000e+001 1.051250e+001
      vertex   -1.087500e+001 -1.000000e+001 1.301250e+001
    endloop
  endfacet
  facet normal 1.000000e+000 -0.000000e+000 0.000000e+000
    outer loop
      vertex   -1.087500e+001 -1.000000e+001 1.301250e+001
      vertex   -1.087500e+001 1.000000e+001 1.051250e+001
      vertex   -1.087500e+001 1.000000e+001 1.301250e+001
    endloop
  endfacet
  facet normal 0.000000e+000 -1.000000e+000 0.000000e+000
    outer loop
      vertex   -1.287500e+001 -1.000000e+001 1.051250e+001
      vertex   -1.087500e+001 -1.000000e+001 1.051250e+001
      vertex   -1.287500e+001 -1.000000e+001 1.301250e+001
    endloop
  endfacet
  facet normal 0.000000e+000 -1.000000e+000 0.000000e+000
    outer loop
      vertex   -1.287500e+001 -1.000000e+001 1.301250e+001
      vertex   -1.087500e+001 -1.000000e+001 1.051250e+001
      vertex   -1.087500e+001 -1.000000e+001 1.301250e+001
    endloop
  endfacet
  facet normal -1.000000e+000 0.000000e+000 0.000000e+000
    outer loop
      vertex   -1.287500e+001 1.000000e+001 1.051250e+001
      vertex   -1.287500e+001 -1.000000e+001 1.051250e+001
      vertex   -1.287500e+001 1.000000e+001 1.301250e+001
    endloop
  endfacet
  facet normal -1.000000e+000 -0.000000e+000 0.000000e+000
    outer loop
      vertex   -1.287500e+001 1.000000e+001 1.301250e+001
      vertex   -1.287500e+001 -1.000000e+001 1.051250e+001
      vertex   -1.287500e+001 -1.000000e+001 1.301250e+001
    endloop
  endfacet
  facet normal 0.000000e+000 -0.000000e+000 1.000000e+000
    outer loop
      vertex   -1.287500e+001 -1.000000e+001 1.301250e+001
      vertex   -1.087500e+001 -1.000000e+001 1.301250e+001
      vertex   -1.287500e+001 1.000000e+001 1.301250e+001
    endloop
  endfacet
  facet normal -0.000000e+000 0.000000e+000 1.000000e+000
    outer loop
      vertex   -1.287500e+001 1.000000e+001 1.301250e+001
      vertex   -1.087500e+001 -1.000000e+001 1.301250e+001
      vertex   -1.087500e+001 1.000000e+001 1.301250e+001
    endloop
  endfacet
  facet normal 0.000000e+000 -0.000000e+000 -1.000000e+000
    outer loop
      vertex   -1.287500e+001 1.000000e+001 1.051250e+001
      vertex   -1.087500e+001 1.000000e+001 1.051250e+001
      vertex   -1.287500e+001 -1.000000e+001 1.051250e+001
    endloop
  endfacet
  facet normal 0.000000e+000 0.000000e+000 -1.000000e+000
    outer loop
      vertex   -1.287500e+001 -1.000000e+001 1.051250e+001
      vertex   -1.087500e+001 1.000000e+001 1.051250e+001
      vertex   -1.087500e+001 -1.000000e+001 1.051250e+001
    endloop
  endfacet
endsolid
solid ascii
  facet normal 1.000000e+000 0.000000e+000 -0.000000e+000
    outer loop
      vertex   -7.000000e+000 1.000000e+001 1.250000e+001
      vertex   -7.000000e+000 1.250000e+001 1.250000e+001
      vertex   -7.000000e+000 1.000000e+001 1.500000e+001
    endloop
  endfacet
  facet normal 1.000000e+000 -0.000000e+000 0.000000e+000
    outer loop
      vertex   -7.000000e+000 1.000000e+001 1.500000e+001
      vertex   -7.000000e+000 1.250000e+001 1.250000e+001
      vertex   -7.000000e+000 1.250000e+001 1.500000e+001
    endloop
  endfacet
  facet normal 0.000000e+000 -1.000000e+000 0.000000e+000
    outer loop
      vertex   -4.700000e+001 1.000000e+001 1.250000e+001
      vertex   -7.000000e+000 1.000000e+001 1.250000e+001
      vertex   -4.700000e+001 1.000000e+001 1.500000e+001
    endloop
  endfacet
  facet normal 0.000000e+000 -1.000000e+000 0.000000e+000
    outer loop
      vertex   -4.700000e+001 1.000000e+001 1.500000e+001
      vertex   -7.000000e+000 1.000000e+001 1.250000e+001
      vertex   -7.000000e+000 1.000000e+001 1.500000e+001
    endloop
  endfacet
  facet normal -1.000000e+000 0.000000e+000 0.000000e+000
    outer loop
      vertex   -4.700000e+001 1.250000e+001 1.250000e+001
      vertex   -4.700000e+001 1.000000e+001 1.250000e+001
      vertex   -4.700000e+001 1.250000e+001 1.500000e+001
    endloop
  endfacet
  facet normal -1.000000e+000 -0.000000e+000 0.000000e+000
    outer loop
      vertex   -4.700000e+001 1.250000e+001 1.500000e+001
      vertex   -4.700000e+001 1.000000e+001 1.250000e+001
      vertex   -4.700000e+001 1.000000e+001 1.500000e+001
    endloop
  endfacet
  facet normal 0.000000e+000 1.000000e+000 -0.000000e+000
    outer loop
      vertex   -7.000000e+000 1.250000e+001 1.250000e+001
      vertex   -4.700000e+001 1.250000e+001 1.250000e+001
      vertex   -7.000000e+000 1.250000e+001 1.500000e+001
    endloop
  endfacet
  facet normal 0.000000e+000 1.000000e+000 -0.000000e+000
    outer loop
      vertex   -7.000000e+000 1.250000e+001 1.500000e+001
      vertex   -4.700000e+001 1.250000e+001 1.250000e+001
      vertex   -4.700000e+001 1.250000e+001 1.500000e+001
    endloop
  endfacet
  facet normal 0.000000e+000 0.000000e+000 1.000000e+000
    outer loop
      vertex   -7.000000e+000 1.250000e+001 1.500000e+001
      vertex   -4.700000e+001 1.250000e+001 1.500000e+001
      vertex   -7.000000e+000 1.000000e+001 1.500000e+001
    endloop
  endfacet
  facet normal 0.000000e+000 0.000000e+000 1.000000e+000
    outer loop
      vertex   -7.000000e+000 1.000000e+001 1.500000e+001
      vertex   -4.700000e+001 1.250000e+001 1.500000e+001
      vertex   -4.700000e+001 1.000000e+001 1.500000e+001
    endloop
  endfacet
  facet normal 0.000000e+000 -0.000000e+000 -1.000000e+000
    outer loop
      vertex   -4.700000e+001 1.250000e+001 1.250000e+001
      vertex   -7.000000e+000 1.250000e+001 1.250000e+001
      vertex   -4.700000e+001 1.000000e+001 1.250000e+001
    endloop
  endfacet
  facet normal 0.000000e+000 0.000000e+000 -1.000000e+000
    outer loop
      vertex   -4.700000e+001 1.000000e+001 1.250000e+001
      vertex   -7.000000e+000 1.250000e+001 1.250000e+001
      vertex   -7.000000e+000 1.000000e+001 1.250000e+001
    endloop
  endfacet
endsolid
solid ascii
  facet normal 0.000000e+000 1.000000e+000 -0.000000e+000
    outer loop
      vertex   -7.000000e+000 1.000000e+000 1.300000e+001
      vertex   -4.700000e+001 1.000000e+000 1.300000e+001
      vertex   -7.000000e+000 1.000000e+000 1.500000e+001
    endloop
  endfacet
  facet normal 0.000000e+000 1.000000e+000 -0.000000e+000
    outer loop
      vertex   -7.000000e+000 1.000000e+000 1.500000e+001
      vertex   -4.700000e+001 1.000000e+000 1.300000e+001
      vertex   -4.700000e+001 1.000000e+000 1.500000e+001
    endloop
  endfacet
  facet normal 1.000000e+000 0.000000e+000 -0.000000e+000
    outer loop
      vertex   -7.000000e+000 -1.000000e+000 1.300000e+001
      vertex   -7.000000e+000 1.000000e+000 1.300000e+001
      vertex   -7.000000e+000 -1.000000e+000 1.500000e+001
    endloop
  endfacet
  facet normal 1.000000e+000 -0.000000e+000 0.000000e+000
    outer loop
      vertex   -7.000000e+000 -1.000000e+000 1.500000e+001
      vertex   -7.000000e+000 1.000000e+000 1.300000e+001
      vertex   -7.000000e+000 1.000000e+000 1.500000e+001
    endloop
  endfacet
  facet normal 0.000000e+000 -1.000000e+000 0.000000e+000
    outer loop
      vertex   -4.700000e+001 -1.000000e+000 1.300000e+001
      vertex   -7.000000e+000 -1.000000e+000 1.300000e+001
      vertex   -4.700000e+001 -1.000000e+000 1.500000e+001
    endloop
  endfacet
  facet normal 0.000000e+000 -1.000000e+000 0.000000e+000
    outer loop
      vertex   -4.700000e+001 -1.000000e+000 1.500000e+001
      vertex   -7.000000e+000 -1.000000e+000 1.300000e+001
      vertex   -7.000000e+000 -1.000000e+000 1.500000e+001
    endloop
  endfacet
  facet normal -1.000000e+000 0.000000e+000 0.000000e+000
    outer loop
      vertex   -4.700000e+001 1.000000e+000 1.300000e+001
      vertex   -4.700000e+001 -1.000000e+000 1.300000e+001
      vertex   -4.700000e+001 1.000000e+000 1.500000e+001
    endloop
  endfacet
  facet normal -1.000000e+000 -0.000000e+000 0.000000e+000
    outer loop
      vertex   -4.700000e+001 1.000000e+000 1.500000e+001
      vertex   -4.700000e+001 -1.000000e+000 1.300000e+001
      vertex   -4.700000e+001 -1.000000e+000 1.500000e+001
    endloop
  endfacet
  facet normal 0.000000e+000 -0.000000e+000 1.000000e+000
    outer loop
      vertex   -4.700000e+001 -1.000000e+000 1.500000e+001
      vertex   -7.000000e+000 -1.000000e+000 1.500000e+001
      vertex   -4.700000e+001 1.000000e+000 1.500000e+001
    endloop
  endfacet
  facet normal -0.000000e+000 0.000000e+000 1.000000e+000
    outer loop
      vertex   -4.700000e+001 1.000000e+000 1.500000e+001
      vertex   -7.000000e+000 -1.000000e+000 1.500000e+001
      vertex   -7.000000e+000 1.000000e+000 1.500000e+001
    endloop
  endfacet
  facet normal 0.000000e+000 -0.000000e+000 -1.000000e+000
    outer loop
      vertex   -4.700000e+001 1.000000e+000 1.300000e+001
      vertex   -7.000000e+000 1.000000e+000 1.300000e+001
      vertex   -4.700000e+001 -1.000000e+000 1.300000e+001
    endloop
  endfacet
  facet normal 0.000000e+000 0.000000e+000 -1.000000e+000
    outer loop
      vertex   -4.700000e+001 -1.000000e+000 1.300000e+001
      vertex   -7.000000e+000 1.000000e+000 1.300000e+001
      vertex   -7.000000e+000 -1.000000e+000 1.300000e+001
    endloop
  endfacet
endsolid
solid ascii
  facet normal 0.000000e+000 1.000000e+000 -0.000000e+000
    outer loop
      vertex   -7.000000e+000 4.000000e+000 1.300000e+001
      vertex   -4.700000e+001 4.000000e+000 1.300000e+001
      vertex   -7.000000e+000 4.000000e+000 1.500000e+001
    endloop
  endfacet
  facet normal 0.000000e+000 1.000000e+000 -0.000000e+000
    outer loop
      vertex   -7.000000e+000 4.000000e+000 1.500000e+001
      vertex   -4.700000e+001 4.000000e+000 1.300000e+001
      vertex   -4.700000e+001 4.000000e+000 1.500000e+001
    endloop
  endfacet
  facet normal 1.000000e+000 0.000000e+000 -0.000000e+000
    outer loop
      vertex   -7.000000e+000 2.000000e+000 1.300000e+001
      vertex   -7.000000e+000 4.000000e+000 1.300000e+001
      vertex   -7.000000e+000 2.000000e+000 1.500000e+001
    endloop
  endfacet
  facet normal 1.000000e+000 -0.000000e+000 0.000000e+000
    outer loop
      vertex   -7.000000e+000 2.000000e+000 1.500000e+001
      vertex   -7.000000e+000 4.000000e+000 1.300000e+001
      vertex   -7.000000e+000 4.000000e+000 1.500000e+001
    endloop
  endfacet
  facet normal 0.000000e+000 -1.000000e+000 0.000000e+000
    outer loop
      vertex   -4.700000e+001 2.000000e+000 1.300000e+001
      vertex   -7.000000e+000 2.000000e+000 1.300000e+001
      vertex   -4.700000e+001 2.000000e+000 1.500000e+001
    endloop
  endfacet
  facet normal 0.000000e+000 -1.000000e+000 0.000000e+000
    outer loop
      vertex   -4.700000e+001 2.000000e+000 1.500000e+001
      vertex   -7.000000e+000 2.000000e+000 1.300000e+001
      vertex   -7.000000e+000 2.000000e+000 1.500000e+001
    endloop
  endfacet
  facet normal -1.000000e+000 0.000000e+000 0.000000e+000
    outer loop
      vertex   -4.700000e+001 4.000000e+000 1.300000e+001
      vertex   -4.700000e+001 2.000000e+000 1.300000e+001
      vertex   -4.700000e+001 4.000000e+000 1.500000e+001
    endloop
  endfacet
  facet normal -1.000000e+000 -0.000000e+000 0.000000e+000
    outer loop
      vertex   -4.700000e+001 4.000000e+000 1.500000e+001
      vertex   -4.700000e+001 2.000000e+000 1.300000e+001
      vertex   -4.700000e+001 2.000000e+000 1.500000e+001
    endloop
  endfacet
  facet normal 0.000000e+000 -0.000000e+000 1.000000e+000
    outer loop
      vertex   -4.700000e+001 2.000000e+000 1.500000e+001
      vertex   -7.000000e+000 2.000000e+000 1.500000e+001
      vertex   -4.700000e+001 4.000000e+000 1.500000e+001
    endloop
  endfacet
  facet normal -0.000000e+000 0.000000e+000 1.000000e+000
    outer loop
      vertex   -4.700000e+001 4.000000e+000 1.500000e+001
      vertex   -7.000000e+000 2.000000e+000 1.500000e+001
      vertex   -7.000000e+000 4.000000e+000 1.500000e+001
    endloop
  endfacet
  facet normal 0.000000e+000 -0.000000e+000 -1.000000e+000
    outer loop
      vertex   -4.700000e+001 4.000000e+000 1.300000e+001
      vertex   -7.000000e+000 4.000000e+000 1.300000e+001
      vertex   -4.700000e+001 2.000000e+000 1.300000e+001
    endloop
  endfacet
  facet normal 0.000000e+000 0.000000e+000 -1.000000e+000
    outer loop
      vertex   -4.700000e+001 2.000000e+000 1.300000e+001
      vertex   -7.000000e+000 4.000000e+000 1.300000e+001
      vertex   -7.000000e+000 2.000000e+000 1.300000e+001
    endloop
  endfacet
endsolid
solid ascii
  facet normal 0.000000e+000 1.000000e+000 -0.000000e+000
    outer loop
      vertex   -7.000000e+000 7.000000e+000 1.300000e+001
      vertex   -4.700000e+001 7.000000e+000 1.300000e+001
      vertex   -7.000000e+000 7.000000e+000 1.500000e+001
    endloop
  endfacet
  facet normal 0.000000e+000 1.000000e+000 -0.000000e+000
    outer loop
      vertex   -7.000000e+000 7.000000e+000 1.500000e+001
      vertex   -4.700000e+001 7.000000e+000 1.300000e+001
      vertex   -4.700000e+001 7.000000e+000 1.500000e+001
    endloop
  endfacet
  facet normal 1.000000e+000 0.000000e+000 -0.000000e+000
    outer loop
      vertex   -7.000000e+000 5.000000e+000 1.300000e+001
      vertex   -7.000000e+000 7.000000e+000 1.300000e+001
      vertex   -7.000000e+000 5.000000e+000 1.500000e+001
    endloop
  endfacet
  facet normal 1.000000e+000 -0.000000e+000 0.000000e+000
    outer loop
      vertex   -7.000000e+000 5.000000e+000 1.500000e+001
      vertex   -7.000000e+000 7.000000e+000 1.300000e+001
      vertex   -7.000000e+000 7.000000e+000 1.500000e+001
    endloop
  endfacet
  facet normal 0.000000e+000 -1.000000e+000 0.000000e+000
    outer loop
      vertex   -4.700000e+001 5.000000e+000 1.300000e+001
      vertex   -7.000000e+000 5.000000e+000 1.300000e+001
      vertex   -4.700000e+001 5.000000e+000 1.500000e+001
    endloop
  endfacet
  facet normal 0.000000e+000 -1.000000e+000 0.000000e+000
    outer loop
      vertex   -4.700000e+001 5.000000e+000 1.500000e+001
      vertex   -7.000000e+000 5.000000e+000 1.300000e+001
      vertex   -7.000000e+000 5.000000e+000 1.500000e+001
    endloop
  endfacet
  facet normal -1.000000e+000 0.000000e+000 0.000000e+000
    outer loop
      vertex   -4.700000e+001 7.000000e+000 1.300000e+001
      vertex   -4.700000e+001 5.000000e+000 1.300000e+001
      vertex   -4.700000e+001 7.000000e+000 1.500000e+001
    endloop
  endfacet
  facet normal -1.000000e+000 -0.000000e+000 0.000000e+000
    outer loop
      vertex   -4.700000e+001 7.000000e+000 1.500000e+001
      vertex   -4.700000e+001 5.000000e+000 1.300000e+001
      vertex   -4.700000e+001 5.000000e+000 1.500000e+001
    endloop
  endfacet
  facet normal 0.000000e+000 -0.000000e+000 1.000000e+000
    outer loop
      vertex   -4.700000e+001 5.000000e+000 1.500000e+001
      vertex   -7.000000e+000 5.000000e+000 1.500000e+001
      vertex   -4.700000e+001 7.000000e+000 1.500000e+001
    endloop
  endfacet
  facet normal -0.000000e+000 0.000000e+000 1.000000e+000
    outer loop
      vertex   -4.700000e+001 7.000000e+000 1.500000e+001
      vertex   -7.000000e+000 5.000000e+000 1.500000e+001
      vertex   -7.000000e+000 7.000000e+000 1.500000e+001
    endloop
  endfacet
  facet normal 0.000000e+000 -0.000000e+000 -1.000000e+000
    outer loop
      vertex   -4.700000e+001 7.000000e+000 1.300000e+001
      vertex   -7.000000e+000 7.000000e+000 1.300000e+001
      vertex   -4.700000e+001 5.000000e+000 1.300000e+001
    endloop
  endfacet
  facet normal 0.000000e+000 0.000000e+000 -1.000000e+000
    outer loop
      vertex   -4.700000e+001 5.000000e+000 1.300000e+001
      vertex   -7.000000e+000 7.000000e+000 1.300000e+001
      vertex   -7.000000e+000 5.000000e+000 1.300000e+001
    endloop
  endfacet
endsolid
solid ascii
  facet normal 0.000000e+000 1.000000e+000 -0.000000e+000
    outer loop
      vertex   -7.000000e+000 -2.000000e+000 1.300000e+001
      vertex   -4.700000e+001 -2.000000e+000 1.300000e+001
      vertex   -7.000000e+000 -2.000000e+000 1.500000e+001
    endloop
  endfacet
  facet normal 0.000000e+000 1.000000e+000 -0.000000e+000
    outer loop
      vertex   -7.000000e+000 -2.000000e+000 1.500000e+001
      vertex   -4.700000e+001 -2.000000e+000 1.300000e+001
      vertex   -4.700000e+001 -2.000000e+000 1.500000e+001
    endloop
  endfacet
  facet normal 1.000000e+000 0.000000e+000 -0.000000e+000
    outer loop
      vertex   -7.000000e+000 -4.000000e+000 1.300000e+001
      vertex   -7.000000e+000 -2.000000e+000 1.300000e+001
      vertex   -7.000000e+000 -4.000000e+000 1.500000e+001
    endloop
  endfacet
  facet normal 1.000000e+000 -0.000000e+000 0.000000e+000
    outer loop
      vertex   -7.000000e+000 -4.000000e+000 1.500000e+001
      vertex   -7.000000e+000 -2.000000e+000 1.300000e+001
      vertex   -7.000000e+000 -2.000000e+000 1.500000e+001
    endloop
  endfacet
  facet normal 0.000000e+000 -1.000000e+000 0.000000e+000
    outer loop
      vertex   -4.700000e+001 -4.000000e+000 1.300000e+001
      vertex   -7.000000e+000 -4.000000e+000 1.300000e+001
      vertex   -4.700000e+001 -4.000000e+000 1.500000e+001
    endloop
  endfacet
  facet normal 0.000000e+000 -1.000000e+000 0.000000e+000
    outer loop
      vertex   -4.700000e+001 -4.000000e+000 1.500000e+001
      vertex   -7.000000e+000 -4.000000e+000 1.300000e+001
      vertex   -7.000000e+000 -4.000000e+000 1.500000e+001
    endloop
  endfacet
  facet normal -1.000000e+000 0.000000e+000 0.000000e+000
    outer loop
      vertex   -4.700000e+001 -2.000000e+000 1.300000e+001
      vertex   -4.700000e+001 -4.000000e+000 1.300000e+001
      vertex   -4.700000e+001 -2.000000e+000 1.500000e+001
    endloop
  endfacet
  facet normal -1.000000e+000 -0.000000e+000 0.000000e+000
    outer loop
      vertex   -4.700000e+001 -2.000000e+000 1.500000e+001
      vertex   -4.700000e+001 -4.000000e+000 1.300000e+001
      vertex   -4.700000e+001 -4.000000e+000 1.500000e+001
    endloop
  endfacet
  facet normal 0.000000e+000 -0.000000e+000 1.000000e+000
    outer loop
      vertex   -4.700000e+001 -4.000000e+000 1.500000e+001
      vertex   -7.000000e+000 -4.000000e+000 1.500000e+001
      vertex   -4.700000e+001 -2.000000e+000 1.500000e+001
    endloop
  endfacet
  facet normal -0.000000e+000 0.000000e+000 1.000000e+000
    outer loop
      vertex   -4.700000e+001 -2.000000e+000 1.500000e+001
      vertex   -7.000000e+000 -4.000000e+000 1.500000e+001
      vertex   -7.000000e+000 -2.000000e+000 1.500000e+001
    endloop
  endfacet
  facet normal 0.000000e+000 -0.000000e+000 -1.000000e+000
    outer loop
      vertex   -4.700000e+001 -2.000000e+000 1.300000e+001
      vertex   -7.000000e+000 -2.000000e+000 1.300000e+001
      vertex   -4.700000e+001 -4.000000e+000 1.300000e+001
    endloop
  endfacet
  facet normal 0.000000e+000 0.000000e+000 -1.000000e+000
    outer loop
      vertex   -4.700000e+001 -4.000000e+000 1.300000e+001
      vertex   -7.000000e+000 -2.000000e+000 1.300000e+001
      vertex   -7.000000e+000 -4.000000e+000 1.300000e+001
    endloop
  endfacet
endsolid
solid ascii
  facet normal 0.000000e+000 1.000000e+000 -0.000000e+000
    outer loop
      vertex   -7.000000e+000 -5.000000e+000 1.300000e+001
      vertex   -4.700000e+001 -5.000000e+000 1.300000e+001
      vertex   -7.000000e+000 -5.000000e+000 1.500000e+001
    endloop
  endfacet
  facet normal 0.000000e+000 1.000000e+000 -0.000000e+000
    outer loop
      vertex   -7.000000e+000 -5.000000e+000 1.500000e+001
      vertex   -4.700000e+001 -5.000000e+000 1.300000e+001
      vertex   -4.700000e+001 -5.000000e+000 1.500000e+001
    endloop
  endfacet
  facet normal 1.000000e+000 0.000000e+000 -0.000000e+000
    outer loop
      vertex   -7.000000e+000 -7.000000e+000 1.300000e+001
      vertex   -7.000000e+000 -5.000000e+000 1.300000e+001
      vertex   -7.000000e+000 -7.000000e+000 1.500000e+001
    endloop
  endfacet
  facet normal 1.000000e+000 -0.000000e+000 0.000000e+000
    outer loop
      vertex   -7.000000e+000 -7.000000e+000 1.500000e+001
      vertex   -7.000000e+000 -5.000000e+000 1.300000e+001
      vertex   -7.000000e+000 -5.000000e+000 1.500000e+001
    endloop
  endfacet
  facet normal 0.000000e+000 -1.000000e+000 0.000000e+000
    outer loop
      vertex   -4.700000e+001 -7.000000e+000 1.300000e+001
      vertex   -7.000000e+000 -7.000000e+000 1.300000e+001
      vertex   -4.700000e+001 -7.000000e+000 1.500000e+001
    endloop
  endfacet
  facet normal 0.000000e+000 -1.000000e+000 0.000000e+000
    outer loop
      vertex   -4.700000e+001 -7.000000e+000 1.500000e+001
      vertex   -7.000000e+000 -7.000000e+000 1.300000e+001
      vertex   -7.000000e+000 -7.000000e+000 1.500000e+001
    endloop
  endfacet
  facet normal -1.000000e+000 0.000000e+000 0.000000e+000
    outer loop
      vertex   -4.700000e+001 -5.000000e+000 1.300000e+001
      vertex   -4.700000e+001 -7.000000e+000 1.300000e+001
      vertex   -4.700000e+001 -5.000000e+000 1.500000e+001
    endloop
  endfacet
  facet normal -1.000000e+000 -0.000000e+000 0.000000e+000
    outer loop
      vertex   -4.700000e+001 -5.000000e+000 1.500000e+001
      vertex   -4.700000e+001 -7.000000e+000 1.300000e+001
      vertex   -4.700000e+001 -7.000000e+000 1.500000e+001
    endloop
  endfacet
  facet normal 0.000000e+000 -0.000000e+000 1.000000e+000
    outer loop
      vertex   -4.700000e+001 -7.000000e+000 1.500000e+001
      vertex   -7.000000e+000 -7.000000e+000 1.500000e+001
      vertex   -4.700000e+001 -5.000000e+000 1.500000e+001
    endloop
  endfacet
  facet normal -0.000000e+000 0.000000e+000 1.000000e+000
    outer loop
      vertex   -4.700000e+001 -5.000000e+000 1.500000e+001
      vertex   -7.000000e+000 -7.000000e+000 1.500000e+001
      vertex   -7.000000e+000 -5.000000e+000 1.500000e+001
    endloop
  endfacet
  facet normal 0.000000e+000 -0.000000e+000 -1.000000e+000
    outer loop
      vertex   -4.700000e+001 -5.000000e+000 1.300000e+001
      vertex   -7.000000e+000 -5.000000e+000 1.300000e+001
      vertex   -4.700000e+001 -7.000000e+000 1.300000e+001
    endloop
  endfacet
  facet normal 0.000000e+000 0.000000e+000 -1.000000e+000
    outer loop
      vertex   -4.700000e+001 -7.000000e+000 1.300000e+001
      vertex   -7.000000e+000 -5.000000e+000 1.300000e+001
      vertex   -7.000000e+000 -7.000000e+000 1.300000e+001
    endloop
  endfacet
endsolid
solid ascii
  facet normal 0.000000e+000 1.000000e+000 -0.000000e+000
    outer loop
      vertex   -7.000000e+000 7.000000e+000 1.300000e+001
      vertex   -4.700000e+001 7.000000e+000 1.300000e+001
      vertex   -7.000000e+000 7.000000e+000 1.500000e+001
    endloop
  endfacet
  facet normal 0.000000e+000 1.000000e+000 -0.000000e+000
    outer loop
      vertex   -7.000000e+000 7.000000e+000 1.500000e+001
      vertex   -4.700000e+001 7.000000e+000 1.300000e+001
      vertex   -4.700000e+001 7.000000e+000 1.500000e+001
    endloop
  endfacet
  facet normal 1.000000e+000 0.000000e+000 -0.000000e+000
    outer loop
      vertex   -7.000000e+000 5.000000e+000 1.300000e+001
      vertex   -7.000000e+000 7.000000e+000 1.300000e+001
      vertex   -7.000000e+000 5.000000e+000 1.500000e+001
    endloop
  endfacet
  facet normal 1.000000e+000 -0.000000e+000 0.000000e+000
    outer loop
      vertex   -7.000000e+000 5.000000e+000 1.500000e+001
      vertex   -7.000000e+000 7.000000e+000 1.300000e+001
      vertex   -7.000000e+000 7.000000e+000 1.500000e+001
    endloop
  endfacet
  facet normal 0.000000e+000 -1.000000e+000 0.000000e+000
    outer loop
      vertex   -4.700000e+001 5.000000e+000 1.300000e+001
      vertex   -7.000000e+000 5.000000e+000 1.300000e+001
      vertex   -4.700000e+001 5.000000e+000 1.500000e+001
    endloop
  endfacet
  facet normal 0.000000e+000 -1.000000e+000 0.000000e+000
    outer loop
      vertex   -4.700000e+001 5.000000e+000 1.500000e+001
      vertex   -7.000000e+000 5.000000e+000 1.300000e+001
      vertex   -7.000000e+000 5.000000e+000 1.500000e+001
    endloop
  endfacet
  facet normal -1.000000e+000 0.000000e+000 0.000000e+000
    outer loop
      vertex   -4.700000e+001 7.000000e+000 1.300000e+001
      vertex   -4.700000e+001 5.000000e+000 1.300000e+001
      vertex   -4.700000e+001 7.000000e+000 1.500000e+001
    endloop
  endfacet
  facet normal -1.000000e+000 -0.000000e+000 0.000000e+000
    outer loop
      vertex   -4.700000e+001 7.000000e+000 1.500000e+001
      vertex   -4.700000e+001 5.000000e+000 1.300000e+001
      vertex   -4.700000e+001 5.000000e+000 1.500000e+001
    endloop
  endfacet
  facet normal 0.000000e+000 -0.000000e+000 1.000000e+000
    outer loop
      vertex   -4.700000e+001 5.000000e+000 1.500000e+001
      vertex   -7.000000e+000 5.000000e+000 1.500000e+001
      vertex   -4.700000e+001 7.000000e+000 1.500000e+001
    endloop
  endfacet
  facet normal -0.000000e+000 0.000000e+000 1.000000e+000
    outer loop
      vertex   -4.700000e+001 7.000000e+000 1.500000e+001
      vertex   -7.000000e+000 5.000000e+000 1.500000e+001
      vertex   -7.000000e+000 7.000000e+000 1.500000e+001
    endloop
  endfacet
  facet normal 0.000000e+000 -0.000000e+000 -1.000000e+000
    outer loop
      vertex   -4.700000e+001 7.000000e+000 1.300000e+001
      vertex   -7.000000e+000 7.000000e+000 1.300000e+001
      vertex   -4.700000e+001 5.000000e+000 1.300000e+001
    endloop
  endfacet
  facet normal 0.000000e+000 0.000000e+000 -1.000000e+000
    outer loop
      vertex   -4.700000e+001 5.000000e+000 1.300000e+001
      vertex   -7.000000e+000 7.000000e+000 1.300000e+001
      vertex   -7.000000e+000 5.000000e+000 1.300000e+001
    endloop
  endfacet
endsolid
solid ascii
  facet normal 0.000000e+000 1.000000e+000 -0.000000e+000
    outer loop
      vertex   -7.000000e+000 1.000000e+001 1.300000e+001
      vertex   -4.700000e+001 1.000000e+001 1.300000e+001
      vertex   -7.000000e+000 1.000000e+001 1.500000e+001
    endloop
  endfacet
  facet normal 0.000000e+000 1.000000e+000 -0.000000e+000
    outer loop
      vertex   -7.000000e+000 1.000000e+001 1.500000e+001
      vertex   -4.700000e+001 1.000000e+001 1.300000e+001
      vertex   -4.700000e+001 1.000000e+001 1.500000e+001
    endloop
  endfacet
  facet normal 1.000000e+000 0.000000e+000 -0.000000e+000
    outer loop
      vertex   -7.000000e+000 8.000000e+000 1.300000e+001
      vertex   -7.000000e+000 1.000000e+001 1.300000e+001
      vertex   -7.000000e+000 8.000000e+000 1.500000e+001
    endloop
  endfacet
  facet normal 1.000000e+000 -0.000000e+000 0.000000e+000
    outer loop
      vertex   -7.000000e+000 8.000000e+000 1.500000e+001
      vertex   -7.000000e+000 1.000000e+001 1.300000e+001
      vertex   -7.000000e+000 1.000000e+001 1.500000e+001
    endloop
  endfacet
  facet normal 0.000000e+000 -1.000000e+000 0.000000e+000
    outer loop
      vertex   -4.700000e+001 8.000000e+000 1.300000e+001
      vertex   -7.000000e+000 8.000000e+000 1.300000e+001
      vertex   -4.700000e+001 8.000000e+000 1.500000e+001
    endloop
  endfacet
  facet normal 0.000000e+000 -1.000000e+000 0.000000e+000
    outer loop
      vertex   -4.700000e+001 8.000000e+000 1.500000e+001
      vertex   -7.000000e+000 8.000000e+000 1.300000e+001
      vertex   -7.000000e+000 8.000000e+000 1.500000e+001
    endloop
  endfacet
  facet normal -1.000000e+000 0.000000e+000 0.000000e+000
    outer loop
      vertex   -4.700000e+001 1.000000e+001 1.300000e+001
      vertex   -4.700000e+001 8.000000e+000 1.300000e+001
      vertex   -4.700000e+001 1.000000e+001 1.500000e+001
    endloop
  endfacet
  facet normal -1.000000e+000 -0.000000e+000 0.000000e+000
    outer loop
      vertex   -4.700000e+001 1.000000e+001 1.500000e+001
      vertex   -4.700000e+001 8.000000e+000 1.300000e+001
      vertex   -4.700000e+001 8.000000e+000 1.500000e+001
    endloop
  endfacet
  facet normal 0.000000e+000 -0.000000e+000 1.000000e+000
    outer loop
      vertex   -4.700000e+001 8.000000e+000 1.500000e+001
      vertex   -7.000000e+000 8.000000e+000 1.500000e+001
      vertex   -4.700000e+001 1.000000e+001 1.500000e+001
    endloop
  endfacet
  facet normal -0.000000e+000 0.000000e+000 1.000000e+000
    outer loop
      vertex   -4.700000e+001 1.000000e+001 1.500000e+001
      vertex   -7.000000e+000 8.000000e+000 1.500000e+001
      vertex   -7.000000e+000 1.000000e+001 1.500000e+001
    endloop
  endfacet
  facet normal 0.000000e+000 -0.000000e+000 -1.000000e+000
    outer loop
      vertex   -4.700000e+001 1.000000e+001 1.300000e+001
      vertex   -7.000000e+000 1.000000e+001 1.300000e+001
      vertex   -4.700000e+001 8.000000e+000 1.300000e+001
    endloop
  endfacet
  facet normal 0.000000e+000 0.000000e+000 -1.000000e+000
    outer loop
      vertex   -4.700000e+001 8.000000e+000 1.300000e+001
      vertex   -7.000000e+000 1.000000e+001 1.300000e+001
      vertex   -7.000000e+000 8.000000e+000 1.300000e+001
    endloop
  endfacet
endsolid
solid ascii
  facet normal 0.000000e+000 1.000000e+000 -0.000000e+000
    outer loop
      vertex   -7.000000e+000 -8.000000e+000 1.300000e+001
      vertex   -4.700000e+001 -8.000000e+000 1.300000e+001
      vertex   -7.000000e+000 -8.000000e+000 1.500000e+001
    endloop
  endfacet
  facet normal 0.000000e+000 1.000000e+000 -0.000000e+000
    outer loop
      vertex   -7.000000e+000 -8.000000e+000 1.500000e+001
      vertex   -4.700000e+001 -8.000000e+000 1.300000e+001
      vertex   -4.700000e+001 -8.000000e+000 1.500000e+001
    endloop
  endfacet
  facet normal 1.000000e+000 0.000000e+000 -0.000000e+000
    outer loop
      vertex   -7.000000e+000 -1.000000e+001 1.300000e+001
      vertex   -7.000000e+000 -8.000000e+000 1.300000e+001
      vertex   -7.000000e+000 -1.000000e+001 1.500000e+001
    endloop
  endfacet
  facet normal 1.000000e+000 -0.000000e+000 0.000000e+000
    outer loop
      vertex   -7.000000e+000 -1.000000e+001 1.500000e+001
      vertex   -7.000000e+000 -8.000000e+000 1.300000e+001
      vertex   -7.000000e+000 -8.000000e+000 1.500000e+001
    endloop
  endfacet
  facet normal 0.000000e+000 -1.000000e+000 0.000000e+000
    outer loop
      vertex   -4.700000e+001 -1.000000e+001 1.300000e+001
      vertex   -7.000000e+000 -1.000000e+001 1.300000e+001
      vertex   -4.700000e+001 -1.000000e+001 1.500000e+001
    endloop
  endfacet
  facet normal 0.000000e+000 -1.000000e+000 0.000000e+000
    outer loop
      vertex   -4.700000e+001 -1.000000e+001 1.500000e+001
      vertex   -7.000000e+000 -1.000000e+001 1.300000e+001
      vertex   -7.000000e+000 -1.000000e+001 1.500000e+001
    endloop
  endfacet
  facet normal -1.000000e+000 0.000000e+000 0.000000e+000
    outer loop
      vertex   -4.700000e+001 -8.000000e+000 1.300000e+001
      vertex   -4.700000e+001 -1.000000e+001 1.300000e+001
      vertex   -4.700000e+001 -8.000000e+000 1.500000e+001
    endloop
  endfacet
  facet normal -1.000000e+000 -0.000000e+000 0.000000e+000
    outer loop
      vertex   -4.700000e+001 -8.000000e+000 1.500000e+001
      vertex   -4.700000e+001 -1.000000e+001 1.300000e+001
      vertex   -4.700000e+001 -1.000000e+001 1.500000e+001
    endloop
  endfacet
  facet normal 0.000000e+000 -0.000000e+000 1.000000e+000
    outer loop
      vertex   -4.700000e+001 -1.000000e+001 1.500000e+001
      vertex   -7.000000e+000 -1.000000e+001 1.500000e+001
      vertex   -4.700000e+001 -8.000000e+000 1.500000e+001
    endloop
  endfacet
  facet normal -0.000000e+000 0.000000e+000 1.000000e+000
    outer loop
      vertex   -4.700000e+001 -8.000000e+000 1.500000e+001
      vertex   -7.000000e+000 -1.000000e+001 1.500000e+001
      vertex   -7.000000e+000 -8.000000e+000 1.500000e+001
    endloop
  endfacet
  facet normal 0.000000e+000 -0.000000e+000 -1.000000e+000
    outer loop
      vertex   -4.700000e+001 -8.000000e+000 1.300000e+001
      vertex   -7.000000e+000 -8.000000e+000 1.300000e+001
      vertex   -4.700000e+001 -1.000000e+001 1.300000e+001
    endloop
  endfacet
  facet normal 0.000000e+000 0.000000e+000 -1.000000e+000
    outer loop
      vertex   -4.700000e+001 -1.000000e+001 1.300000e+001
      vertex   -7.000000e+000 -8.000000e+000 1.300000e+001
      vertex   -7.000000e+000 -1.000000e+001 1.300000e+001
    endloop
  endfacet
endsolid
